<svg xmlns="http://www.w3.org/2000/svg" viewBox="0 0 216.86 216.86">
  <defs>
    <style>
      .cls-1 {
        fill: #1a66de;
      }

      .cls-2 {
        fill: #4dce73;
      }

      .cls-3 {
        fill: #fff;
      }
    </style>
  </defs>
  <g id="Candombe_drum" data-name="Candombe drum">
    <g>
      <path id="blue" class="cls-1" d="M185.1,31.76a108.42,108.42,0,0,0-153.34,0L185.1,185.1A108.43,108.43,0,0,0,185.1,31.76Z"/>
      <path id="green" class="cls-2" d="M31.76,185.1a108.43,108.43,0,0,0,153.34,0L31.76,31.76A108.42,108.42,0,0,0,31.76,185.1Z"/>
    </g>
    <path id="white" class="cls-3" d="M149.08,126.59a100.89,100.89,0,0,0,1.26-23.16,154.08,154.08,0,0,0-3.23-22c-1.65-7.27-3.57-14.48-5.4-21.7A1.58,1.58,0,0,1,142,58c1.31-1.47,1.45-6.86.13-8.32a8.14,8.14,0,0,0-2.7-1.54,3.13,3.13,0,0,0-1.19,0h-3.78a3.12,3.12,0,0,0-5.89,0H111.4a3.12,3.12,0,0,0-5.89,0H88.34a3.12,3.12,0,0,0-5.89,0H78.71c-3.4,0-4.72,1.32-4.72,4.7a17.73,17.73,0,0,0,0,2.63,4.66,4.66,0,0,0,.74,2.33A2.05,2.05,0,0,1,75.13,60a220.58,220.58,0,0,0-7.31,32.42c-.64,4.38-.91,8.81-1.35,13.22,0,.47-.12.94-.18,1.41v4.79c.21,2.46.39,4.92.64,7.38a189.59,189.59,0,0,0,4.54,26c1.14,4.69,2.46,9.33,3.74,14,.18.67.28,1.18-.32,1.71a1.91,1.91,0,0,0-.66,1.23,47.28,47.28,0,0,0,0,6.07c.14,1.37,1.43,2,2.58,2.58h63.25a4.38,4.38,0,0,0,2.85-4.84c-.06-.79.06-1.6,0-2.39a4,4,0,0,0-.57-2.14c-1-1.05-.71-2-.37-3.15A223.5,223.5,0,0,0,149.08,126.59ZM134.66,51.77h4.6v3.92h-4.6ZM131.42,69a2.12,2.12,0,0,1,2.11,2,2.06,2.06,0,0,1-1.94,2,2,2,0,0,1-2.08-2A2,2,0,0,1,131.42,69Zm-23,0a2,2,0,0,1,2,2,2,2,0,1,1-4,0A2,2,0,0,1,108.41,69ZM88.53,51.76h16.78v3.93H88.53ZM87.19,62.61a3.12,3.12,0,0,0,1.34-2.56v-.6h16.78v.6a3.14,3.14,0,0,0,1.34,2.56c0,.87,0,1.73,0,2.6a.94.94,0,0,1-.5.68A5.65,5.65,0,0,0,105.78,76a2,2,0,0,1,.24.27c-6.81,18.18-13.64,36.42-20.58,54.93-.22-.49-.34-.74-.44-1q-4.44-11.8-8.84-23.64A2.42,2.42,0,0,1,76.1,105q4.45-12.06,9-24.1c.07-.17.15-.34.33-.72.22.56.39,1,.54,1.35L91,95c.13.34.25.68.41,1a1.7,1.7,0,0,0,2.15,1,1.68,1.68,0,0,0,1.18-2.17,29,29,0,0,0-1-2.92c-2-5.23-3.92-10.45-5.81-15.5a20.89,20.89,0,0,0,2.51-3.09,5.33,5.33,0,0,0-2.26-7.2,1.64,1.64,0,0,1-1-1.77C87.19,63.82,87.19,63.21,87.19,62.61ZM85.39,69a2,2,0,0,1,2,2.07,2,2,0,0,1-2,2,2,2,0,0,1-2-2.05A2.11,2.11,0,0,1,85.39,69ZM77.65,51.78h4.6v3.94h-4.6ZM71.83,90.1a237.23,237.23,0,0,1,7-29.91c.08-.26.19-.51.3-.81h3.15v.67a3.14,3.14,0,0,0,1.34,2.56c0,.89,0,1.78,0,2.66,0,.25-.37.56-.64.72-4,2.24-4.22,7-.54,9.75a1.22,1.22,0,0,1,.39,1C79.9,84.5,77,92.22,74.09,99.94c0,.1-.15.18-.28.33a58.53,58.53,0,0,1-2.35-6.42C71.18,92.7,71.63,91.35,71.83,90.1Zm-1.57,11.67c2.4,3,1.29,5.81-.42,8.56Zm13.27,65.39H77.67v-3.92h5.86Zm.06-7.63H79c-1.08-4-2.36-8-3.22-12.08-1.72-8.11-3.19-16.27-4.78-24.4a9.56,9.56,0,0,1,.59-6.16c.88-1.87,1.49-3.86,2.31-6,.23.5.39.82.52,1.16q4.13,11,8.26,22c.28.73.27,1.13-.46,1.64a5.56,5.56,0,0,0,.55,9.47c.36.21.83.63.83.95C83.61,150.56,83.59,155,83.59,159.53Zm1.85-17.28a2.09,2.09,0,0,1-2-2.05,2,2,0,0,1,2-2,2,2,0,0,1,2,2A2,2,0,0,1,85.44,142.25Zm21.18,24.91H87.28v-3.92h19.34Zm0-8.89c0,.39,0,.78-.05,1.23H87.29a8.16,8.16,0,0,1-.1-.88c0-4,0-8.07,0-12.11a1.6,1.6,0,0,1,.64-1.19c4.07-2.38,4.3-7.21.42-9.89-.13-.09-.25-.19-.46-.36,6.83-18.23,13.66-36.46,20.59-54.94.24.53.4.83.52,1.14l5.25,14c.16.4.26,1,.57,1.15.56.33,1.38.75,1.87.56a2.82,2.82,0,0,0,1.22-1.65c.14-.41-.17-1-.35-1.48L111,76.49a20.76,20.76,0,0,0,2.5-3.13,5.31,5.31,0,0,0-2.27-7.19,1.57,1.57,0,0,1-1-1.67c0-.63,0-1.26,0-1.89a3.15,3.15,0,0,0,1.33-2.56v-.67h6.56c.56,0,1.12,0,1.68,0a1.79,1.79,0,1,0,0-3.58c-1.31,0-2.63,0-4,0h-4.26v-4h16.79v4c-1.2,0-2.38,0-2.41,1.76s1.17,1.84,2.41,1.84v.67a3.12,3.12,0,0,0,1.34,2.56q0,1.32,0,2.61a1,1,0,0,1-.52.68A5.64,5.64,0,0,0,128.82,76c.07,0,.11.11.26.26l-20.49,54.66h-.28l-5.4-14.44a9,9,0,0,0-.62-1.42,1.74,1.74,0,0,0-3.23,1.13,7.43,7.43,0,0,0,.41,1.37l6.46,17.25a21.47,21.47,0,0,0-2.5,3.14,5.32,5.32,0,0,0,2.29,7.19,1.58,1.58,0,0,1,1,1.67C106.64,150.6,106.66,154.44,106.65,158.27Zm1.85-16a2,2,0,0,1-2-2,2,2,0,1,1,4,0A2,2,0,0,1,108.5,142.25Zm21.13,24.94h-19.3v-3.93h19.3Zm.09-8.23a4.93,4.93,0,0,1-.08.53H110.25v-2.76c0-3.39,0-6.79,0-10.19a1.68,1.68,0,0,1,.61-1.21c4.13-2.46,4.32-7.19.35-10-.1-.07-.18-.16-.36-.32,6.82-18.2,13.65-36.44,20.57-54.93.23.5.38.79.49,1.08q2.64,7,5.26,14a5.31,5.31,0,0,0,.48,1.09,1.62,1.62,0,0,0,2.06.75,1.64,1.64,0,0,0,1.16-2,9.07,9.07,0,0,0-.47-1.48c-2.05-5.49-4.09-11-6.18-16.46-.27-.72-.22-1.08.45-1.54a5.52,5.52,0,0,0-.5-9.45,1.48,1.48,0,0,1-.9-1.57c0-.65,0-1.31,0-2a3.14,3.14,0,0,0,1.34-2.56v-.63h3.26C139,63.2,140.15,67,141,70.8c1.61,7.28,3,14.6,4.5,21.91a2.67,2.67,0,0,1-.1,1.4q-6.81,18.26-13.68,36.51a4,4,0,0,1-.25.47c-.2-.52-.37-.91-.51-1.31q-2.6-6.89-5.19-13.77c-.15-.4-.26-1-.57-1.15a3.44,3.44,0,0,0-1.88-.61,1.41,1.41,0,0,0-1.23,1.65,5.19,5.19,0,0,0,.38,1.49c2.19,5.87,4.39,11.73,6.52,17.41a18.83,18.83,0,0,0-2.47,3,5.5,5.5,0,0,0,2.31,7.42,1.75,1.75,0,0,1,.85,1.18C129.75,150.57,129.72,154.77,129.72,159Zm1.83-16.71a2,2,0,0,1-2-1.92,2,2,0,0,1,1.94-2.11,2,2,0,0,1,2.08,2A2.11,2.11,0,0,1,131.55,142.25Zm7.69,24.93h-5.82v-3.93h5.82Zm-1.09-8.59c-.09.3-.2.6-.31.91h-4.46c0-.37-.06-.68-.06-1,0-4,0-8,0-12a1.25,1.25,0,0,1,.71-1.32,5.57,5.57,0,0,0,.59-9.67,1.28,1.28,0,0,1-.44-1.1c4-10.86,8.11-21.71,12.39-32.57.07.71.16,1.42.22,2.13.63,8.46-.38,16.82-1.74,25.14A227,227,0,0,1,138.15,158.59Z"/>
  </g>
</svg>
