<svg xmlns="http://www.w3.org/2000/svg" viewBox="0 0 216.86 216.86">
  <defs>
    <style>
      .cls-1 {
        fill: #1a66de;
      }

      .cls-2 {
        fill: #4dce73;
      }

      .cls-3 {
        fill: #fff;
      }
    </style>
  </defs>
  <g id="Cymbal">
    <g>
      <path id="blue" class="cls-1" d="M185.1,31.76a108.42,108.42,0,0,0-153.34,0L185.1,185.1A108.43,108.43,0,0,0,185.1,31.76Z"/>
      <path id="green" class="cls-2" d="M31.76,185.1a108.43,108.43,0,0,0,153.34,0L31.76,31.76A108.42,108.42,0,0,0,31.76,185.1Z"/>
    </g>
    <path id="white" class="cls-3" d="M82.71,62.71c0,.21,0,.43,0,.64a1.43,1.43,0,1,1-2.86,0c0-.46,0-.91,0-1.36a1.43,1.43,0,1,1,2.86,0C82.72,62.23,82.71,62.47,82.71,62.71Zm-5.56,6.42A1.39,1.39,0,0,0,78.4,67.8a1.31,1.31,0,0,0-1.05-1.42,8,8,0,0,0-2.19,0,1.31,1.31,0,0,0-1,1.42,1.4,1.4,0,0,0,1.25,1.33,8.22,8.22,0,0,0,.86,0C76.53,69.13,76.84,69.16,77.15,69.13Zm10,0a1.39,1.39,0,0,0,1.25-1.34,1.32,1.32,0,0,0-1.06-1.41,8,8,0,0,0-2.19,0,1.31,1.31,0,0,0-1,1.42,1.4,1.4,0,0,0,1.26,1.33,8,8,0,0,0,.85,0C86.58,69.13,86.9,69.16,87.2,69.13Zm-7.35,4.3a1.41,1.41,0,0,0,1.45,1.45,1.39,1.39,0,0,0,1.41-1.42c0-.48,0-1,0-1.43a1.43,1.43,0,0,0-2.86,0c0,.24,0,.48,0,.72S79.84,73.2,79.85,73.43Zm57.72,66.79c0,.22,0,.43,0,.65a1.44,1.44,0,1,1-2.87,0c0-.45,0-.91,0-1.36a1.47,1.47,0,0,1,1.46-1.47,1.45,1.45,0,0,1,1.4,1.44C137.58,139.74,137.57,140,137.57,140.22ZM132,146.64a1.4,1.4,0,0,0,1.26-1.33,1.33,1.33,0,0,0-1.06-1.42,8.92,8.92,0,0,0-2.19,0,1.32,1.32,0,0,0-1,1.42,1.4,1.4,0,0,0,1.26,1.33,8,8,0,0,0,.85,0C131.38,146.65,131.69,146.67,132,146.64Zm10.05,0a1.39,1.39,0,0,0,1.25-1.34,1.3,1.3,0,0,0-1.05-1.41,8.45,8.45,0,0,0-2.19,0,1.31,1.31,0,0,0-1.05,1.42,1.4,1.4,0,0,0,1.26,1.32,8.23,8.23,0,0,0,.86,0C141.44,146.65,141.75,146.67,142.05,146.64ZM134.7,151a1.4,1.4,0,0,0,1.46,1.44,1.39,1.39,0,0,0,1.4-1.41,11.53,11.53,0,0,0,0-1.44,1.45,1.45,0,0,0-1.41-1.43,1.47,1.47,0,0,0-1.45,1.4c0,.24,0,.48,0,.72S134.69,150.71,134.7,151Zm-53.23-45A20.26,20.26,0,0,0,77.23,146v1.46a4.25,4.25,0,1,0,8.49,0V146a20.26,20.26,0,0,0-4.25-40.07Zm3.09,18.59H78.38a1.15,1.15,0,0,0-1.15,1.16v12.09a12.35,12.35,0,1,1,8.49,0V125.69A1.16,1.16,0,0,0,84.56,124.53Zm1.16,19.09v-3.39a14.67,14.67,0,1,0-8.49,0v3.39a17.95,17.95,0,1,1,8.49,0ZM136.35,40.54A45.87,45.87,0,0,0,90.82,81.35,45.81,45.81,0,1,0,127,131.2a45.81,45.81,0,1,0,9.34-90.66ZM81.47,169.7a43.5,43.5,0,1,1,9.16-86q-.09,1.32-.09,2.67a45.9,45.9,0,0,0,34.2,44.32A43.55,43.55,0,0,1,81.47,169.7Zm59.13-63.54v1.47a4.25,4.25,0,0,1-8.49,0v-1.47a20.26,20.26,0,1,1,8.49,0Zm13.7-19.81a18,18,0,0,1-13.7,17.42v-3.39a14.67,14.67,0,1,0-8.49,0v3.39A17.94,17.94,0,1,1,154.3,86.35Zm-13.7-.51a1.16,1.16,0,0,0-1.15-1.16h-6.19a1.15,1.15,0,0,0-1.15,1.16v12.1a12.36,12.36,0,1,1,8.49,0Z"/>
  </g>
</svg>
