<svg id="Camada_1" data-name="Camada 1" xmlns="http://www.w3.org/2000/svg" viewBox="0 0 493 200">
  <defs>
    <style>
      .cls-1 {
        fill: #4dce73;
      }

      .cls-2 {
        fill: #fff;
      }

      .cls-3 {
        fill: #1a66de;
      }

      .cls-4 {
        fill: #fee503;
      }
    </style>
  </defs>
  <g>
    <path class="cls-1" d="M449.61,138.74s-198.87-68.56-404.48,0h0l-28.56-91L114,26.37C209.22,9.82,302.9,17,363.88,24.5l115.6,19Z"/>
    <g>
      <path class="cls-2" d="M42.22,71.22a2.92,2.92,0,0,1,.3-1.54,1.92,1.92,0,0,1,.82-.91,2.1,2.1,0,0,1,.84-.37,3.24,3.24,0,0,1,1.42,0,3.74,3.74,0,0,1,2,1c.11.35.22.78.33,1.31s.3,1.14.48,2a8.07,8.07,0,0,1,1.86-3.07,7.37,7.37,0,0,1,3.38-2.17,5.32,5.32,0,0,1,4.49.72,5.24,5.24,0,0,1,1.7,1.92,6.46,6.46,0,0,1,.68,2.48,13.22,13.22,0,0,1-.87,5.66,41.48,41.48,0,0,1-2.19,5.31c-.4.82-.79,1.54-1.14,2.14s-.58,1-.73,1.31a18.13,18.13,0,0,1,3.15-1A9.71,9.71,0,0,1,63,85.83a6.15,6.15,0,0,1,2.2.81A4.83,4.83,0,0,1,67,88.37a11,11,0,0,1,1.41,3.46,12.82,12.82,0,0,1,.24,1.51,13.16,13.16,0,0,1-.57,5.18A12.88,12.88,0,0,1,64,104.66a7.25,7.25,0,0,1-6.67,1.46,3.47,3.47,0,0,1-1.83-2c-.4-1-.08-2.21.95-3.66a3.52,3.52,0,0,0,1.87.33,2.18,2.18,0,0,0,1.33-.62,3.4,3.4,0,0,0,.93-1.44,8.71,8.71,0,0,0,.49-2,13.18,13.18,0,0,0-.18-4A5.72,5.72,0,0,0,59.77,90a3.45,3.45,0,0,0-4.21-.55,9.42,9.42,0,0,0-3.24,2.65q.63,3.49,1.23,6.63c.49,2.65.94,4.8,1.37,6.46a17.55,17.55,0,0,0,.65,2.15c.21.54.41.83.61.88a2.23,2.23,0,0,1-1.3,1.62,5.94,5.94,0,0,1-1.53.56,9,9,0,0,1-.93.16,5.67,5.67,0,0,1-1.79-.16,3.32,3.32,0,0,1-1.4-.75,16.83,16.83,0,0,1-1.52-4.4c-.43-2-.85-4.2-1.24-6.72-.2-1.34-.4-2.73-.6-4.19L45.28,90q-.48-3.44-.94-6.78C44,81,43.72,78.92,43.4,77a4.46,4.46,0,0,1-4.78.45.69.69,0,0,1-.31-.39.6.6,0,0,1,0-.19.84.84,0,0,1,.35-.53,4.72,4.72,0,0,0,2.12-1.62A5.22,5.22,0,0,0,42.22,71.22Zm8.39,11.45q.51,2.7,1,5.35l.15-.17a5.51,5.51,0,0,0,.92-1.45,10.86,10.86,0,0,0,.85-2.67,23.28,23.28,0,0,0,.34-3.06,26.15,26.15,0,0,0-.27-5.41c-.28-1.69-.6-2.66-1-2.92-.66-.5-1.41-.34-2.24.49a4,4,0,0,0-1.31,2.63Q49.86,78.83,50.61,82.67Z"/>
      <path class="cls-2" d="M72.77,63.14l.31,1,.38,1.72a7.54,7.54,0,0,1,2.2-2.56,9.35,9.35,0,0,1,4.09-2.09,6.49,6.49,0,0,1,1.9-.14,4.37,4.37,0,0,1,1.8.66,7,7,0,0,1,2.64,2.78,7.55,7.55,0,0,1,.76,3.28,9.39,9.39,0,0,1-.38,2.89,21.14,21.14,0,0,1-1,2.81A22.55,22.55,0,0,1,82.61,78a17.14,17.14,0,0,1-2.5,2.67,5.28,5.28,0,0,1,2.74.55,10.48,10.48,0,0,1,2.48,1.84,16,16,0,0,1,2.34,2.71c.72,1,1.41,2.1,2.08,3.18,1.2,2,2.3,3.79,3.28,5.35s1.85,2.32,2.64,2.18a2.16,2.16,0,0,1,.14.43,2.23,2.23,0,0,1,0,.77,2.59,2.59,0,0,1-.33,1,4.27,4.27,0,0,1-2.94,1.89,4.71,4.71,0,0,1-3.6-.46,10.91,10.91,0,0,1-2.17-3.84c-.89-2.08-1.87-4.16-2.94-6.26-.58-1.13-1.18-2.16-1.78-3.1a11.58,11.58,0,0,0-1.93-2.29,3.2,3.2,0,0,0-1.88-.83,2.13,2.13,0,0,0-1.34.43q.8,4.42,1.5,7.67c.34,1.55.67,2.82,1,3.79s.57,1.53.87,1.65A2.1,2.1,0,0,1,79,99a5.74,5.74,0,0,1-2.47.68,5.91,5.91,0,0,1-1.78-.16,4,4,0,0,1-1.5-.73A21.26,21.26,0,0,1,71.36,92c-.46-3-.91-6.39-1.35-10-.22-1.95-.46-3.93-.73-6s-.55-4-.87-5.88a2.18,2.18,0,0,1-2,.8,3.2,3.2,0,0,1-2-.43,1,1,0,0,1-.32-.39.37.37,0,0,1,0-.18.81.81,0,0,1,.34-.54,4.29,4.29,0,0,0,1.92-1.52,5.22,5.22,0,0,0,1.29-3.36A2.89,2.89,0,0,1,67.85,63a2.09,2.09,0,0,1,.79-.82,2.61,2.61,0,0,1,.64-.23,3,3,0,0,1,1.54.12A3.71,3.71,0,0,1,72.77,63.14ZM78,78.23A11.19,11.19,0,0,0,79.32,75a15.81,15.81,0,0,0,.29-5.4,6.15,6.15,0,0,0-1.37-3.71c-.55-.58-1.4-.52-2.53.19S74,67.5,73.83,68.2c.91,3.87,1.71,7.81,2.4,11.79A4.81,4.81,0,0,0,78,78.23Z"/>
      <path class="cls-2" d="M96.62,80.49c-.64,0-1-.22-1.1-.63a.71.71,0,0,1,.08-.48c.18-.71.5-1.12,1-1.22l.74,0a.16.16,0,0,1,0-.14c.08-1.74.19-3.46.33-5.18q.36-4.68,1-8.86a38.94,38.94,0,0,1,1.48-6.67,2.91,2.91,0,0,1,.72-1.31A3.68,3.68,0,0,1,102,55.3l.31-.07a5.1,5.1,0,0,1,2.68.24,6.9,6.9,0,0,1,2.88,1.81l2.62,8q1.47,4.65,3.08,9.45c.58,1.65,1.13,3.28,1.67,4.87s1.06,3.16,1.55,4.58q1.41,3.93,2.4,6.52c.68,1.72,1.12,2.59,1.3,2.61a.65.65,0,0,0,.64-.24,1,1,0,0,0,.06-.79A2.44,2.44,0,0,1,122.3,94l0,.09a3.06,3.06,0,0,1-.4,2.39,3.17,3.17,0,0,1-.84.78,4.81,4.81,0,0,1-.81.27c-.21,0-.41.07-.62.09a5.57,5.57,0,0,1-4.53-1.77,19.07,19.07,0,0,1-3.68-5.26c-.6-1.16-1.16-2.41-1.7-3.77s-1-2.71-1.42-4.15-.9-2.86-1.31-4.31c-.84.22-1.69.42-2.54.6l-1.58.35c0,1.81,0,3.62,0,5.42,0,3,.08,5.48.14,7.56,0,1.09,0,2,.05,2.74s.07,1.25.09,1.46a2,2,0,0,1-.66,1,2.19,2.19,0,0,1-1,.49A3.63,3.63,0,0,1,99,97.59a2.77,2.77,0,0,1-1.61-1.49q-.19-2.35-.25-5.74c0-2.26,0-4.67,0-7.23,0-.89,0-1.8,0-2.72A3.25,3.25,0,0,1,96.62,80.49Zm9-8.23q-1-4.56-1.56-7.71a11.32,11.32,0,0,0-.7-3.2,3,3,0,0,0-.16.73c0,.43-.07,1-.13,1.73,0,1.32-.09,3-.15,5.18s0,4.39,0,6.81l0,1.34c.93-.23,1.9-.49,2.91-.77l.7-.16C106.16,74.84,105.87,73.53,105.63,72.26Z"/>
      <path class="cls-2" d="M119.2,54a22.58,22.58,0,0,0,6.74-.78q3.31-1,6.69-1.78c1.11-.25,2.24-.47,3.4-.64l.27,0a17.69,17.69,0,0,1,3.79-.16,3.49,3.49,0,0,1,1.2,2,3.55,3.55,0,0,1,.06.4,10.11,10.11,0,0,1-.4,2.47,49.41,49.41,0,0,0-3.24,5.39c-1.08,2-2.1,4.16-3,6.36-1.18,2.69-2.24,5.31-3.19,7.88s-1.65,4.73-2.2,6.5c-.32,1-.56,1.77-.73,2.43a5.11,5.11,0,0,0-.26,1.31,31.06,31.06,0,0,1,3.47.12c1.35.1,2.68.22,4,.35a50.91,50.91,0,0,0,5.3.17c1.51,0,2.2-.36,2.07-1a5.72,5.72,0,0,1,1.19.37,3.22,3.22,0,0,1,.82.65,2.77,2.77,0,0,1-1.87,4.5l-.18,0c-2.8,0-5.14.13-7,.23s-3.76,0-5.69-.06c-1,0-2.12-.11-3.26-.24s-2.47-.31-3.9-.56a1.5,1.5,0,0,1-1.33-1.34,1,1,0,0,1-.07-.44,6.86,6.86,0,0,1,.5-2.71c.58-1.24,1.32-2.94,2.24-5.11s1.87-4.38,2.85-6.74c.55-1.23,1.07-2.47,1.58-3.73l1.47-3.54c.87-2.09,1.61-3.89,2.24-5.37s.93-2.4,1-2.65a59.91,59.91,0,0,1-6.86.89,28.44,28.44,0,0,1-6.41-.32,3.5,3.5,0,0,1-2.55-2.52A1.8,1.8,0,0,1,119.2,54Z"/>
      <path class="cls-2" d="M159.5,85.74a6.23,6.23,0,0,1-.95,2.37,5.81,5.81,0,0,1-1.49,1.48,5.3,5.3,0,0,1-2.36.91,5.7,5.7,0,0,1-1.95-.14c-1.54-.34-2.49-1-2.83-1.84,0-.21-.06-.62-.1-1.21s0-1.3-.07-2.17c0-1.59-.08-3.58-.14-6s-.12-4.84-.19-7.48c0-1.72-.11-3.44-.19-5.18s-.12-3.41-.21-5c-.14-3-.3-5.58-.49-7.76a11.19,11.19,0,0,0-.72-3.86,2.56,2.56,0,0,1,.6-2.24,3.67,3.67,0,0,1,1.81-1.2,3.78,3.78,0,0,1,.74-.18,2.68,2.68,0,0,1,1.33.17,2.92,2.92,0,0,1,.89.62,2.5,2.5,0,0,1,.53,1.07,60.33,60.33,0,0,1,1.06,8q.33,5,.65,10.15t.69,9.69a39.76,39.76,0,0,0,1.16,7.24,5.42,5.42,0,0,0,1,2.1A1,1,0,0,0,159.5,85.74Z"/>
      <path class="cls-2" d="M161.62,47.25a2.23,2.23,0,0,1,2-1.49h.09a4.09,4.09,0,0,1,2.94,1,7.71,7.71,0,0,1,1.46,1.72,8.29,8.29,0,0,1,1,2.66,53.73,53.73,0,0,1,1.25,6.33q.51,3.53.88,7.14.43,4.38.72,8.42c.18,2.69.36,4.9.51,6.62.06.93.12,1.68.21,2.24a3.23,3.23,0,0,0,.18,1c.81-.07,1.72-.14,2.73-.2s1.61-.22,1.84-.57a.93.93,0,0,1,.8.83,1.7,1.7,0,0,1,0,.31,1.91,1.91,0,0,1-1,1.36L175,85.82c-.86.44-1.77.85-2.73,1.24A27.43,27.43,0,0,1,167,88.58c-.27,0-.52.09-.76.11a3.76,3.76,0,0,1-3.15-.89,7,7,0,0,1-.31-1.46c0-.14,0-.29,0-.44-.05-.57-.09-1.24-.1-2q-.1-2.66,0-6.45t.13-8c0-1.84.09-3.66.14-5.47s0-3.54,0-5.19q0-4.65-.27-7.87C162.46,48.77,162.13,47.54,161.62,47.25Z"/>
      <path class="cls-2" d="M191,83.06A6.15,6.15,0,0,1,190,85.38a5.65,5.65,0,0,1-1.57,1.42,5.29,5.29,0,0,1-2.4.79,5.46,5.46,0,0,1-1.93-.23c-1.53-.4-2.45-1.06-2.75-2,0-.21,0-.61,0-1.21s0-1.3,0-2.17c.05-1.59.09-3.58.14-6s.1-4.84.16-7.49c0-1.71,0-3.44,0-5.18s0-3.41,0-5q0-4.5-.13-7.78a11.14,11.14,0,0,0-.54-3.88,2.81,2.81,0,0,1,.1-1.22,2.56,2.56,0,0,1,.61-1,3.67,3.67,0,0,1,1.86-1.12,4.27,4.27,0,0,1,.75-.14,2.75,2.75,0,0,1,1.32.23,3.14,3.14,0,0,1,.86.66,2.48,2.48,0,0,1,.48,1.09,62,62,0,0,1,.69,8.06c.07,3.3.12,6.69.17,10.16s.09,6.63.24,9.71a39.76,39.76,0,0,0,.82,7.29,5.14,5.14,0,0,0,.87,2.14A1,1,0,0,0,191,83.06Z"/>
      <path class="cls-2" d="M195.41,67.13c-.64-.12-1-.39-1-.81a.8.8,0,0,1,.16-.46c.3-.67.69-1,1.17-1l.73.15a.2.2,0,0,1,0-.14q.57-2.54,1.23-5c.77-3,1.6-5.88,2.47-8.56a38,38,0,0,1,2.62-6.31,2.78,2.78,0,0,1,.94-1.16,3.54,3.54,0,0,1,1.33-.51h.31A4.94,4.94,0,0,1,208,44a6.9,6.9,0,0,1,2.53,2.28l1.2,8.31c.43,3.22.9,6.5,1.39,9.83.29,1.73.55,3.43.8,5.1s.5,3.29.74,4.78c.47,2.73.88,5,1.23,6.82s.65,2.75.83,2.8a.65.65,0,0,0,.67-.12,1,1,0,0,0,.19-.77,2.45,2.45,0,0,1,.76,1.9V85a3,3,0,0,1-.8,2.28,3.07,3.07,0,0,1-1,.63,3.78,3.78,0,0,1-.84.12,4.42,4.42,0,0,1-.63,0A5.65,5.65,0,0,1,211,85.46a19.42,19.42,0,0,1-2.71-5.82c-.38-1.24-.72-2.58-1-4s-.5-2.84-.68-4.33-.39-3-.54-4.47c-.87.06-1.74.12-2.6.15l-1.62.07q-.48,2.67-.9,5.34-.72,4.39-1.17,7.47c-.17,1.08-.31,2-.43,2.71s-.15,1.24-.17,1.45a1.9,1.9,0,0,1-.82.84,2.16,2.16,0,0,1-1.06.32,3.6,3.6,0,0,1-2.46-.8,2.76,2.76,0,0,1-1.33-1.74q.21-2.36.75-5.7c.36-2.23.78-4.6,1.28-7.11q.26-1.32.51-2.67A4,4,0,0,1,195.41,67.13Zm10.29-6.54q-.19-4.67-.19-7.86c0-2.13,0-3.22-.14-3.28a3.58,3.58,0,0,0-.28.69c-.1.43-.25,1-.43,1.68-.27,1.3-.62,3-1,5.08s-.8,4.32-1.21,6.71l-.26,1.31c1-.07,2-.16,3-.26l.72,0C205.78,63.23,205.73,61.88,205.7,60.59Z"/>
      <path class="cls-2" d="M218.62,46.9v-.14a1.67,1.67,0,0,1,.22-.9,1.31,1.31,0,0,1,.58-.63,2.64,2.64,0,0,1,1-.19,4.24,4.24,0,0,1,1.17.17,6.43,6.43,0,0,1,2.21,1,3.88,3.88,0,0,1,1.4,1.7,17.18,17.18,0,0,1,.88,2.6,15.43,15.43,0,0,1,.43,3.41,20.21,20.21,0,0,1,.79-2,22,22,0,0,1,1.95-3.61,15.74,15.74,0,0,1,1.42-2,10.44,10.44,0,0,1,1.65-1.67,7.4,7.4,0,0,1,1.79-1,3.87,3.87,0,0,1,1.39-.28,2.49,2.49,0,0,1,.49,0,5,5,0,0,1,3.57,2,12.82,12.82,0,0,1,2,4.52,30.84,30.84,0,0,1,.82,6.42c.11,2.36.13,4.76.06,7.18,0,1.59-.09,3.13-.14,4.63s-.12,3-.14,4.27a42.81,42.81,0,0,0,.19,6.11c.19,1.55.71,2.28,1.54,2.19a1.9,1.9,0,0,1,.28,1,3,3,0,0,1-.7,1.8A3.63,3.63,0,0,1,240.37,85h-.18a5.27,5.27,0,0,1-2.47-.7,9.57,9.57,0,0,1-2.81-2.26c-1.06-1.16-1.61-3.28-1.67-6.37a92.87,92.87,0,0,1,.36-9.79q.38-4.14.88-8c.31-2.58.48-4.67.53-6.29a10.25,10.25,0,0,0-.06-2.16c-.07-.51-.22-.79-.46-.85a2.38,2.38,0,0,0-2,.6,11.8,11.8,0,0,0-2.1,2.13,25.54,25.54,0,0,0-2.61,4.43,8.5,8.5,0,0,0-1,3.42c.1,1,.17,2.2.21,3.55s.12,2.71.13,4.17q0,4.09-.06,8.23a59.11,59.11,0,0,1-.53,6.56A2.32,2.32,0,0,1,224.9,83a3.23,3.23,0,0,1-2.7-.38A3.33,3.33,0,0,1,221,81.38a5.62,5.62,0,0,1-.74-2.24,12.74,12.74,0,0,1,0-1.57c0-.75,0-1.65,0-2.7,0-2,0-4.27.07-7s.05-5.36,0-8c-.05-3.35-.2-6.32-.43-8.89S219.25,47.1,218.62,46.9Z"/>
      <path class="cls-2" d="M285.43,54.18a2,2,0,0,1-1.74.88,3,3,0,0,1-2.09-.58,3.35,3.35,0,0,1-.6-.75,2.06,2.06,0,0,1-.28-1,3.39,3.39,0,0,0,1.36-2.37,4.61,4.61,0,0,0-.1-3.1,1.7,1.7,0,0,0-.51-.7,2.11,2.11,0,0,0-.8-.35,2.58,2.58,0,0,0-1.54.39A7.21,7.21,0,0,0,277.5,48a20.42,20.42,0,0,0-2.9,4.87,33.72,33.72,0,0,0-2.07,6.75,32.86,32.86,0,0,0-.66,6.18,19.91,19.91,0,0,0,.75,6,17.76,17.76,0,0,0,2,4.8,9.18,9.18,0,0,0,2.54,2.76,4.44,4.44,0,0,0,4.74.46,5.49,5.49,0,0,0,2.91-3.93,1.36,1.36,0,0,1,2.1.18,1.75,1.75,0,0,1,.44,1.27A3.6,3.6,0,0,1,286.8,79a9.51,9.51,0,0,1-1.76,2.4,10.77,10.77,0,0,1-2.28,1.84,12.36,12.36,0,0,1-5.19,1.82,11.18,11.18,0,0,1-1.63.07,10.75,10.75,0,0,1-3.87-.93,12.36,12.36,0,0,1-4.1-3.09,15.63,15.63,0,0,1-3.06-5.56,30.61,30.61,0,0,1-1.34-5.67,29.08,29.08,0,0,1-.32-5.46v-.09a26.08,26.08,0,0,1,1.89-9,21,21,0,0,1,4.55-6.87A15.59,15.59,0,0,1,274.92,45a12.93,12.93,0,0,1,5.39-.91l.72,0a6.15,6.15,0,0,1,2.26.68,5.69,5.69,0,0,1,1.79,1.37,6.59,6.59,0,0,1,.35,8Z"/>
      <path class="cls-2" d="M291.83,67.53c-.62-.19-.91-.5-.88-.92a.7.7,0,0,1,.21-.43c.37-.64.8-.94,1.28-.91.2.08.44.15.7.23a.17.17,0,0,1,.05-.13q.85-2.46,1.78-4.88c1.1-2.92,2.23-5.67,3.4-8.23a38.42,38.42,0,0,1,3.29-6,2.73,2.73,0,0,1,1.06-1.05,3.62,3.62,0,0,1,1.37-.36l.32,0a5.16,5.16,0,0,1,2.5,1,7,7,0,0,1,2.26,2.55q.12,3.47.28,8.39t.31,9.93c.09,1.74.17,3.46.24,5.15s.13,3.32.21,4.83q.26,4.16.47,6.92c.17,1.84.35,2.8.52,2.87a.68.68,0,0,0,.68,0,1.09,1.09,0,0,0,.28-.75,2.52,2.52,0,0,1,.54,2v.09A3,3,0,0,1,311.64,90a3.06,3.06,0,0,1-1,.52,4.05,4.05,0,0,1-.86,0,3.2,3.2,0,0,1-.62-.09,5.58,5.58,0,0,1-3.85-3,19.35,19.35,0,0,1-2.07-6.09c-.24-1.27-.43-2.64-.57-4.09s-.18-2.88-.2-4.38-.06-3-.05-4.5c-.87,0-1.74-.08-2.6-.14l-1.62-.11q-.76,2.61-1.48,5.21-1.18,4.29-2,7.3c-.28,1.06-.52,1.94-.72,2.65s-.28,1.21-.32,1.42a2.05,2.05,0,0,1-.91.75,2.14,2.14,0,0,1-1.09.19,3.56,3.56,0,0,1-2.36-1.06,2.77,2.77,0,0,1-1.14-1.87q.48-2.31,1.37-5.59c.6-2.18,1.29-4.48,2.05-6.92.27-.86.54-1.72.81-2.61A4.46,4.46,0,0,1,291.83,67.53Zm10.95-5.38c.21-3.1.43-5.72.67-7.83a11.57,11.57,0,0,0,.22-3.27,3,3,0,0,0-.36.65l-.6,1.62c-.42,1.27-.95,2.91-1.6,4.94s-1.26,4.2-1.93,6.53l-.41,1.28c1,0,2,.06,3,.07l.71,0C302.57,64.78,302.66,63.44,302.78,62.15Z"/>
      <path class="cls-2" d="M324.63,47.87V49l-.16,1.75a7.51,7.51,0,0,1,2.87-1.77,9.15,9.15,0,0,1,4.54-.76,6.34,6.34,0,0,1,1.85.44,4.26,4.26,0,0,1,1.52,1.17,7,7,0,0,1,1.67,3.45,7.52,7.52,0,0,1-.26,3.36,10.33,10.33,0,0,1-1.23,2.64,22.91,22.91,0,0,1-1.84,2.35,22.57,22.57,0,0,1-4.06,3.47,16.23,16.23,0,0,1-3.19,1.78,5.43,5.43,0,0,1,2.45,1.35,10.52,10.52,0,0,1,1.8,2.51A15.85,15.85,0,0,1,332,74q.56,1.81,1,3.66.81,3.4,1.52,6.09t1.86,2.88a3.38,3.38,0,0,1,0,.45,2.08,2.08,0,0,1-.2.75,2.82,2.82,0,0,1-.63.89,4.26,4.26,0,0,1-3.37.91,4.72,4.72,0,0,1-3.29-1.52,11,11,0,0,1-.92-4.32c-.21-2.25-.52-4.53-.91-6.85-.21-1.26-.47-2.42-.76-3.5a11.44,11.44,0,0,0-1.15-2.77,3.22,3.22,0,0,0-1.54-1.36,2.16,2.16,0,0,0-1.4,0q-.59,4.45-.89,7.77c-.14,1.58-.22,2.88-.22,3.91s.08,1.63.33,1.83a2.13,2.13,0,0,1-1.68,1.11,5.68,5.68,0,0,1-2.56-.1,5.45,5.45,0,0,1-1.65-.69A3.72,3.72,0,0,1,314.35,82a21.21,21.21,0,0,1,.24-7.06c.48-3,1.06-6.37,1.74-9.94q.56-2.88,1.1-5.9t.94-5.87a2.18,2.18,0,0,1-2.13.17,3.34,3.34,0,0,1-1.81-1,1.16,1.16,0,0,1-.18-.46.64.64,0,0,1,.06-.18.82.82,0,0,1,.49-.4,4.41,4.41,0,0,0,2.29-.88,5.13,5.13,0,0,0,2.24-2.82,2.87,2.87,0,0,1,.67-1.38,2,2,0,0,1,1-.54,2.64,2.64,0,0,1,.68,0,2.94,2.94,0,0,1,1.43.58A3.67,3.67,0,0,1,324.63,47.87Zm.44,16a11.13,11.13,0,0,0,2.23-2.68,15.75,15.75,0,0,0,1.91-5.06,6.08,6.08,0,0,0-.19-3.94c-.35-.73-1.18-.92-2.47-.59A3.63,3.63,0,0,0,324.12,53q-.45,6-1.27,12A4.8,4.8,0,0,0,325.07,63.83Z"/>
      <path class="cls-2" d="M341.66,52.24V52.1a1.75,1.75,0,0,1,.33-.87,1.3,1.3,0,0,1,.65-.55,2.55,2.55,0,0,1,1-.07,4.43,4.43,0,0,1,1.14.31,6.34,6.34,0,0,1,2.07,1.28,3.89,3.89,0,0,1,1.19,1.86,17.58,17.58,0,0,1,.55,2.68,15.68,15.68,0,0,1,0,3.44,19.3,19.3,0,0,1,1-1.87A22,22,0,0,1,352,55a15.43,15.43,0,0,1,1.65-1.8,11.45,11.45,0,0,1,1.84-1.46,7.37,7.37,0,0,1,1.9-.77,3.56,3.56,0,0,1,1.41-.11,2.36,2.36,0,0,1,.49.1,4.93,4.93,0,0,1,3.29,2.46A12.85,12.85,0,0,1,364,58.11a30.86,30.86,0,0,1,0,6.47c-.18,2.36-.46,4.74-.82,7.14-.24,1.57-.48,3.09-.71,4.58s-.48,2.91-.66,4.22a41.14,41.14,0,0,0-.57,6.08c0,1.57.42,2.35,1.27,2.36a2,2,0,0,1,.15,1,3,3,0,0,1-.92,1.71,3.64,3.64,0,0,1-3.24,1.07l-.18,0a5.39,5.39,0,0,1-2.37-1,9.73,9.73,0,0,1-2.51-2.59c-.9-1.28-1.2-3.45-.87-6.52a92.61,92.61,0,0,1,1.56-9.68q.87-4.06,1.85-7.84t1.3-6.18a9.65,9.65,0,0,0,.2-2.14c0-.52-.12-.82-.35-.9a2.35,2.35,0,0,0-2,.35,11.75,11.75,0,0,0-2.34,1.86,24.83,24.83,0,0,0-3.13,4.07,8.21,8.21,0,0,0-1.37,3.28c0,1-.11,2.2-.23,3.54s-.22,2.71-.39,4.16q-.46,4.06-1.07,8.16a58.54,58.54,0,0,1-1.33,6.44,2.28,2.28,0,0,1-1.85,1.1,3.15,3.15,0,0,1-2.63-.71,3.27,3.27,0,0,1-1.06-1.38,5.69,5.69,0,0,1-.46-2.32,14.24,14.24,0,0,1,.18-1.56q.13-1.11.36-2.67.38-2.9.92-6.9c.37-2.68.71-5.32,1-7.94q.53-5,.66-8.88C342.52,53.93,342.26,52.52,341.66,52.24Z"/>
      <path class="cls-2" d="M375.2,92a6.14,6.14,0,0,1-1.57,2,5.62,5.62,0,0,1-1.84,1,5.22,5.22,0,0,1-2.52.22,5.54,5.54,0,0,1-1.83-.66c-1.4-.75-2.14-1.6-2.22-2.56,0-.2.11-.6.24-1.19s.33-1.25.53-2.09q.6-2.33,1.49-5.77t1.88-7.24q.64-2.49,1.24-5t1.17-4.86q1-4.38,1.66-7.6a11.2,11.2,0,0,0,.37-3.9,2.82,2.82,0,0,1,.37-1.17,2.67,2.67,0,0,1,.82-.82,3.62,3.62,0,0,1,2.07-.66,3.23,3.23,0,0,1,.77,0,2.62,2.62,0,0,1,1.23.52,2.85,2.85,0,0,1,.68.84,2.52,2.52,0,0,1,.22,1.17,62.91,62.91,0,0,1-1.18,8q-1,4.84-2.17,9.94c-.76,3.3-1.43,6.47-2,9.5a39.11,39.11,0,0,0-.88,7.28,5.26,5.26,0,0,0,.35,2.29A1,1,0,0,0,375.2,92Z"/>
      <path class="cls-2" d="M383.36,56a2.53,2.53,0,0,1,.86-1.09,2.76,2.76,0,0,1,1.2-.62,4.55,4.55,0,0,1,1.88-.06c.26,0,.54.11.83.18a4.91,4.91,0,0,1,2.4,1.72,13.89,13.89,0,0,1,2,4.84,66.66,66.66,0,0,1,1.3,7.27c.19,1.43.37,2.92.54,4.46s.32,3.15.46,4.72q.34,3.66.67,7.26t.81,6.69a29.79,29.79,0,0,0,1.83-4.25c1-2.45,2-5.25,3.16-8.4.9-2.47,1.76-5,2.6-7.45s1.58-4.64,2.15-6.43q.46-1.43.72-2.43a6.81,6.81,0,0,0,.31-1.36,3,3,0,0,1,1.24-.89,2.71,2.71,0,0,1,1.22-.21,3.69,3.69,0,0,1,2,.93,4.94,4.94,0,0,1,1.2,1.33A12.48,12.48,0,0,0,411,65.78c-.75,1.94-1.61,4.26-2.6,7l-1.7,4.5q-.93,2.35-1.92,4.74-1.89,4.52-4.05,8.57a27.12,27.12,0,0,1-4.52,6.4,2.72,2.72,0,0,1-2.3.72l-.36-.06a5.25,5.25,0,0,1-2.25-1,6,6,0,0,1-1.21-1.25,5.24,5.24,0,0,1-.74-1.58c0-.21,0-.62,0-1.23s-.08-1.3-.15-2.17c-.15-1.63-.39-3.63-.69-6s-.6-4.88-1-7.49q-.66-4.8-1.45-9.44t-1.42-7.65c-.24-1.1-.48-2-.7-2.67A2.75,2.75,0,0,0,383.36,56Z"/>
      <path class="cls-2" d="M410,81.93c-.59-.25-.86-.58-.79-1a.75.75,0,0,1,.25-.41c.43-.6.89-.86,1.36-.78.2.09.42.19.68.29a.16.16,0,0,1,.07-.12q1.06-2.37,2.23-4.69Q415.9,71,418,67.35a38.45,38.45,0,0,1,3.85-5.65,2.82,2.82,0,0,1,1.15-1,3.57,3.57,0,0,1,1.41-.22l.31,0a5.08,5.08,0,0,1,2.39,1.21,7,7,0,0,1,2,2.75c-.14,2.31-.31,5.11-.52,8.38s-.44,6.55-.63,9.91c-.08,1.75-.16,3.47-.26,5.15s-.18,3.32-.25,4.83q-.13,4.17-.18,6.94c0,1.85.08,2.82.25,2.9a.67.67,0,0,0,.68,0,1.11,1.11,0,0,0,.34-.72,2.44,2.44,0,0,1,.35,2v.09a3,3,0,0,1-1.26,2.07,3.14,3.14,0,0,1-1.06.42,4.18,4.18,0,0,1-.86,0,4.66,4.66,0,0,1-.62-.15,5.6,5.6,0,0,1-3.55-3.31,19.66,19.66,0,0,1-1.47-6.26c-.12-1.29-.18-2.67-.18-4.13s.09-2.88.22-4.38.22-3,.37-4.49c-.86-.11-1.72-.23-2.58-.38l-1.59-.26q-1,2.52-2,5c-1.07,2.77-1.95,5.13-2.67,7.07-.38,1-.7,1.89-1,2.57s-.39,1.18-.45,1.39a2,2,0,0,1-1,.65,2.18,2.18,0,0,1-1.11.1,3.59,3.59,0,0,1-2.24-1.29,2.76,2.76,0,0,1-.95-2c.46-1.51,1.09-3.31,1.89-5.43s1.71-4.35,2.7-6.7c.35-.82.7-1.66,1.05-2.51A5.84,5.84,0,0,1,410,81.93Zm11.41-4.31q.76-4.62,1.41-7.74a11.56,11.56,0,0,0,.54-3.23,2.69,2.69,0,0,0-.42.61l-.76,1.56c-.53,1.22-1.22,2.8-2.06,4.76s-1.66,4.07-2.54,6.32l-.52,1.23c.95.13,1.94.25,3,.36l.71.11C421,80.21,421.21,78.88,421.45,77.62Z"/>
      <path class="cls-2" d="M440.34,64.16a2.23,2.23,0,0,1,2.34-.94l.09,0A4.08,4.08,0,0,1,445.35,65a7.52,7.52,0,0,1,1,2,8.18,8.18,0,0,1,.31,2.83,53.13,53.13,0,0,1-.38,6.45c-.26,2.35-.58,4.73-.94,7.12-.45,2.91-.93,5.68-1.42,8.33s-.89,4.83-1.17,6.55c-.18.91-.3,1.65-.37,2.21a3.4,3.4,0,0,0-.08,1c.8.13,1.7.29,2.7.49s1.61.19,1.93-.1a.94.94,0,0,1,.56,1,1.42,1.42,0,0,1-.09.3,1.89,1.89,0,0,1-1.32,1.06l-2.46.55c-.94.21-1.92.38-3,.51a26.76,26.76,0,0,1-5.49.15c-.27,0-.52,0-.76-.08a3.8,3.8,0,0,1-2.82-1.65,6.83,6.83,0,0,1,.06-1.49c0-.15.05-.3.08-.45.09-.56.23-1.22.41-2,.38-1.73.9-3.81,1.58-6.25s1.38-5,2.13-7.66q.75-2.65,1.5-5.26c.47-1.74.91-3.42,1.33-5q1.15-4.5,1.72-7.68C440.78,65.84,440.76,64.56,440.34,64.16Z"/>
    </g>
    <g>
      <path class="cls-3" d="M107.9,141.33a10.42,10.42,0,0,1,1-3.92q1-2,2.19-2.1a1.41,1.41,0,0,1,.81.24,2.41,2.41,0,0,1,.8.84,22.89,22.89,0,0,1,1.47,3.09,36.18,36.18,0,0,1,1.22,3.91q0-.37.42-2.07a21.54,21.54,0,0,1,1.09-3.89,16.55,16.55,0,0,1,.95-2.18,8.89,8.89,0,0,1,1.21-1.91,5.85,5.85,0,0,1,1.44-1.26,3.58,3.58,0,0,1,1.3-.47,2.2,2.2,0,0,1,.45,0,3.61,3.61,0,0,1,1.88.44,5.33,5.33,0,0,1,1.54,1.18A7.76,7.76,0,0,1,127,135a17.18,17.18,0,0,1,1,2.11,22.8,22.8,0,0,1,1.17,3.82,20.94,20.94,0,0,1,.37,2.22c.17-.48.44-1.35.79-2.62a23.42,23.42,0,0,1,1.52-3.81,20.43,20.43,0,0,1,1.24-2,7.75,7.75,0,0,1,1.53-1.64A5.44,5.44,0,0,1,137,132a5.18,5.18,0,0,1,2.93.2c1.21.39,2.11,1.56,2.71,3.49a41.73,41.73,0,0,1,1.39,6.84c.15,1.43.3,2.89.43,4.38s.23,3,.37,4.54c.15,2.24.35,4.38.6,6.4a23.86,23.86,0,0,0,1,4.89,5,5,0,0,0,.83,1.65,1.62,1.62,0,0,0,1.11.74,1.13,1.13,0,0,0,1.07-.16,5.12,5.12,0,0,0,.49-.66,3.58,3.58,0,0,1,.55,1.5,6.5,6.5,0,0,1,0,1.41,5.55,5.55,0,0,1-1.12,3.12,4.61,4.61,0,0,1-1.42,1.17,4.41,4.41,0,0,1-1.08.38,4.06,4.06,0,0,1-.81,0,6.21,6.21,0,0,1-3.34-1,8.61,8.61,0,0,1-2.43-2.58,19.35,19.35,0,0,1-2.47-6.45,69,69,0,0,1-1.17-7.81c-.1-1.44-.19-2.84-.27-4.19s-.09-2.63-.12-3.84c0-2.24-.09-4.09-.16-5.57s-.24-2.23-.52-2.28c-.75-.13-1.43.67-2.05,2.4a26.54,26.54,0,0,0-1.34,5.92c-.15,1.21-.26,2.41-.32,3.6a27.35,27.35,0,0,0,.1,3.34,2.54,2.54,0,0,1-.1,1.2,3.64,3.64,0,0,1-.43,1.06,4.22,4.22,0,0,1-2.52,2,1.63,1.63,0,0,1-2.27-.93c-.06-1.2-.2-2.63-.42-4.3s-.49-3.33-.8-5a50.64,50.64,0,0,0-1.69-6.7c-.66-2-1.39-3-2.18-3-.63,0-1.3.69-2,2a25.62,25.62,0,0,0-1.74,4.44,17.37,17.37,0,0,0-.69,2.93,5.62,5.62,0,0,0-.1,2.06c.24,1,.51,2.08.81,3.28s.55,2.45.83,3.74q.77,3.51,1.35,7.11a32.63,32.63,0,0,1,.58,6,4.1,4.1,0,0,1-2.45,1.82,4.71,4.71,0,0,1-3.77,0,4.12,4.12,0,0,1-1.33-1,5.39,5.39,0,0,1-1-1.9,10.61,10.61,0,0,1-.21-1.42c-.07-.66-.14-1.44-.22-2.34q-.2-2.51-.43-5.88c-.19-2.24-.38-4.47-.6-6.68q-.44-4.11-1.08-7.24C109.1,142.55,108.56,141.45,107.9,141.33Z"/>
      <path class="cls-3" d="M175.85,163a3.27,3.27,0,0,1,.06,1.57,1.9,1.9,0,0,1-.52,1.09,2.73,2.73,0,0,1-1.69.75,4.15,4.15,0,0,1-.86,0,2.69,2.69,0,0,1-2-.88,18.39,18.39,0,0,1-1.25-3.49,29.91,29.91,0,0,1-.77-4.3c-.05.18-.25.71-.62,1.59a20,20,0,0,1-1.56,2.95,17.48,17.48,0,0,1-1.24,1.7,11.73,11.73,0,0,1-1.46,1.59A9.84,9.84,0,0,1,161.8,167a6.54,6.54,0,0,1-2.46.64,4.46,4.46,0,0,1-3.67-1.49,10.14,10.14,0,0,1-2.16-4.17,30.69,30.69,0,0,1-1.25-7.28q-.27-4.17-.32-8.36c0-1.45,0-2.86-.05-4.24s0-2.68-.06-3.88a36.83,36.83,0,0,0-.49-5.41c-.28-1.36-.8-2-1.57-1.83a2.07,2.07,0,0,1-.32-.92,3,3,0,0,1,.58-1.91,3.75,3.75,0,0,1,2.78-1.62h.41a6.24,6.24,0,0,1,2.53.57,9,9,0,0,1,2.92,2.15,5.06,5.06,0,0,1,1.14,2,18.1,18.1,0,0,1,.71,3,45.55,45.55,0,0,1,.32,7.46q-.09,4.2-.33,8.25c-.12,2.21-.23,4.25-.35,6.12s-.11,3.33-.07,4.43a4.77,4.77,0,0,0,.23,1.38c.09.35.23.52.41.5a4,4,0,0,0,2.09-.79,12.3,12.3,0,0,0,2-1.86,15.91,15.91,0,0,0,2.36-3.57,6.11,6.11,0,0,0,.84-3q-.09-1.44-.3-3.54t-.39-4.47c-.26-3-.47-6-.65-9a45.64,45.64,0,0,1,0-7,2.22,2.22,0,0,1,1.63-1.37,3.12,3.12,0,0,1,2.64.28,4,4,0,0,1,1.25,1.23,6.13,6.13,0,0,1,.85,2.22l0,.27c.07.66.12,1.83.16,3.51,0,2,.1,4.2.16,6.75,0,1.35.08,2.75.1,4.19s.11,2.91.19,4.31c.17,3.27.41,6.12.74,8.55S175.22,163,175.85,163Z"/>
      <path class="cls-3" d="M195.09,129.94c.11,1.25-.3,1.95-1.22,2.1a2,2,0,0,1-2.15-1.36,3.12,3.12,0,0,0,.14-1.36,2.93,2.93,0,0,0-.42-1,2.83,2.83,0,0,0-1.83-1.15,3.6,3.6,0,0,0-2.23.22,3.37,3.37,0,0,0-1,.78,2.86,2.86,0,0,0-.6,1.25,4.13,4.13,0,0,0,.19,2.47,11.93,11.93,0,0,0,1.43,2.79,45.83,45.83,0,0,0,4.77,5.92,68.58,68.58,0,0,1,5.34,6.34,31.37,31.37,0,0,1,2.63,4.16,10.3,10.3,0,0,1,1,3.59,2.3,2.3,0,0,1,0,.45,12.63,12.63,0,0,1-.71,4.63,8.73,8.73,0,0,1-8,5.84l-.41,0a19,19,0,0,1-6.75-.81,7.25,7.25,0,0,1-2.7-1.41,10.48,10.48,0,0,1-2-2.13,13.19,13.19,0,0,1-2-4.83,22.38,22.38,0,0,1-.51-3.3,8.32,8.32,0,0,1,0-.86,4.62,4.62,0,0,1,.28-1.36,5.49,5.49,0,0,1,.61-1,3.08,3.08,0,0,1,2.72-1.2,1.62,1.62,0,0,1,1.64,1.75,2.68,2.68,0,0,0-1.1,2.63,6.78,6.78,0,0,0,1.37,3.33,7.9,7.9,0,0,0,1.91,1.87,6.39,6.39,0,0,0,2.45,1.11,5.25,5.25,0,0,0,2.3,0,5.91,5.91,0,0,0,2.36-1.14,2.6,2.6,0,0,0,1-1.36,3.66,3.66,0,0,0,0-1.8,12,12,0,0,0-1.88-4.21q-1.49-2.39-3.36-5-1.53-2.21-3.11-4.5a43.87,43.87,0,0,1-2.65-4.47,18.23,18.23,0,0,1-1.6-4.09,7.06,7.06,0,0,1-.09-3.64,7.63,7.63,0,0,1,1.2-2.46A7.33,7.33,0,0,1,184,125a8,8,0,0,1,2.42-.91,7.7,7.7,0,0,1,1.16-.16,7.23,7.23,0,0,1,1.4.05,7.87,7.87,0,0,1,4.25,1.77A5.33,5.33,0,0,1,195.09,129.94Z"/>
      <path class="cls-3" d="M213.83,162a6.22,6.22,0,0,1-1.14,2.29,5.54,5.54,0,0,1-1.61,1.36,5.28,5.28,0,0,1-2.42.71,5.77,5.77,0,0,1-1.93-.29c-1.51-.46-2.4-1.15-2.68-2.07,0-.21,0-.61,0-1.21s.07-1.29.1-2.16c.1-1.59.21-3.58.34-6s.26-4.83.41-7.47c.09-1.71.17-3.44.23-5.18s.15-3.41.19-5c.1-3,.15-5.6.13-7.79a11.14,11.14,0,0,0-.4-3.89,2.79,2.79,0,0,1,.13-1.22,2.63,2.63,0,0,1,.65-1,3.68,3.68,0,0,1,1.89-1.05,3.62,3.62,0,0,1,.76-.12,2.82,2.82,0,0,1,1.31.27,3,3,0,0,1,.84.69,2.42,2.42,0,0,1,.44,1.11,60.87,60.87,0,0,1,.41,8.08c0,3.3-.1,6.68-.16,10.16s-.14,6.63-.09,9.71a39.38,39.38,0,0,0,.56,7.31,5.36,5.36,0,0,0,.8,2.17A1,1,0,0,0,213.83,162Z"/>
      <path class="cls-3" d="M237.43,133a2,2,0,0,1-1.7,1,3,3,0,0,1-2.12-.47,3.3,3.3,0,0,1-.63-.71,2,2,0,0,1-.33-1,3.41,3.41,0,0,0,1.23-2.44,4.65,4.65,0,0,0-.25-3.1,1.79,1.79,0,0,0-.55-.67,1.85,1.85,0,0,0-.81-.3,2.6,2.6,0,0,0-1.52.46,7.28,7.28,0,0,0-1.56,1.5,20.2,20.2,0,0,0-2.64,5,33.56,33.56,0,0,0-1.73,6.84,32.63,32.63,0,0,0-.34,6.21,19.89,19.89,0,0,0,1.06,6,17.84,17.84,0,0,0,2.25,4.69,9.12,9.12,0,0,0,2.68,2.62,4.41,4.41,0,0,0,4.76.22,5.44,5.44,0,0,0,2.7-4.07,1.37,1.37,0,0,1,2.11.07,1.82,1.82,0,0,1,.51,1.25,3.79,3.79,0,0,1-.48,1.67,9.59,9.59,0,0,1-1.64,2.49,11.44,11.44,0,0,1-2.17,2,12.33,12.33,0,0,1-5.1,2.08,11.09,11.09,0,0,1-1.62.15,10.78,10.78,0,0,1-3.92-.72,12.38,12.38,0,0,1-4.25-2.88,15.71,15.71,0,0,1-3.34-5.4,30.8,30.8,0,0,1-1.63-5.6,28.56,28.56,0,0,1-.6-5.43v-.09a26.41,26.41,0,0,1,1.43-9,21,21,0,0,1,4.2-7.1,15.78,15.78,0,0,1,5-3.74,12.92,12.92,0,0,1,5.34-1.17h.72a6.12,6.12,0,0,1,2.29.56,5.87,5.87,0,0,1,1.86,1.28,6.55,6.55,0,0,1,1.7,3.71A6.68,6.68,0,0,1,237.43,133Z"/>
      <path class="cls-3" d="M268.26,162.23a6.34,6.34,0,0,1-1.28,2.21,5.65,5.65,0,0,1-1.7,1.25,5.23,5.23,0,0,1-2.47.55,5.58,5.58,0,0,1-1.9-.42c-1.48-.55-2.32-1.3-2.53-2.23,0-.21,0-.62.08-1.22s.16-1.28.24-2.14q.3-2.39.73-5.92t.9-7.43c.2-1.7.39-3.42.57-5.15s.37-3.39.51-5c.3-3,.52-5.57.65-7.76a11.41,11.41,0,0,0-.15-3.91,2.79,2.79,0,0,1,.21-1.21,2.75,2.75,0,0,1,.71-.92,3.67,3.67,0,0,1,2-.93,3.38,3.38,0,0,1,.76-.06,2.71,2.71,0,0,1,1.3.35,3.2,3.2,0,0,1,.78.74,2.48,2.48,0,0,1,.37,1.14,61,61,0,0,1-.11,8.09q-.39,4.92-.84,10.13-.48,5.06-.72,9.68a39.75,39.75,0,0,0,.08,7.33,5.48,5.48,0,0,0,.65,2.22A1,1,0,0,0,268.26,162.23Z"/>
      <path class="cls-3" d="M293.6,134.83a2,2,0,0,1-1.75.85,3,3,0,0,1-2.09-.6,3.62,3.62,0,0,1-.59-.75,2.09,2.09,0,0,1-.26-1,3.43,3.43,0,0,0,1.38-2.36,4.67,4.67,0,0,0-.06-3.11,1.76,1.76,0,0,0-.51-.7,1.86,1.86,0,0,0-.79-.35,2.6,2.6,0,0,0-1.55.37,7.08,7.08,0,0,0-1.64,1.4,20.27,20.27,0,0,0-2.95,4.84,33.47,33.47,0,0,0-2.15,6.72,32.84,32.84,0,0,0-.72,6.17,19.65,19.65,0,0,0,.68,6,17.85,17.85,0,0,0,1.95,4.82,9.29,9.29,0,0,0,2.51,2.79,4.46,4.46,0,0,0,4.74.51,5.47,5.47,0,0,0,2.95-3.89,1.37,1.37,0,0,1,2.1.19,1.81,1.81,0,0,1,.43,1.29,3.66,3.66,0,0,1-.58,1.63,9.55,9.55,0,0,1-1.78,2.38,11.37,11.37,0,0,1-2.3,1.82,12.3,12.3,0,0,1-5.22,1.75,9.75,9.75,0,0,1-1.62,0,10.5,10.5,0,0,1-3.87-1,12.28,12.28,0,0,1-4.06-3.13,15.64,15.64,0,0,1-3-5.6,30.74,30.74,0,0,1-1.28-5.69,28.87,28.87,0,0,1-.26-5.45s0-.06,0-.09a26,26,0,0,1,2-8.94,21.09,21.09,0,0,1,4.62-6.83,15.53,15.53,0,0,1,5.26-3.41,12.8,12.8,0,0,1,5.4-.85l.72,0a6.12,6.12,0,0,1,2.25.7,6,6,0,0,1,1.78,1.39,6.63,6.63,0,0,1,.26,8Z"/>
      <path class="cls-3" d="M318.35,126.94a1.28,1.28,0,0,1,.44,1.26,7.63,7.63,0,0,1,4.64,2.76,15.13,15.13,0,0,1,2.89,6.09,29.73,29.73,0,0,1,.66,4.15,41.47,41.47,0,0,1,0,4.47l-.07.89a36.3,36.3,0,0,1-2,9.22,20.68,20.68,0,0,1-4.51,7.93,11.43,11.43,0,0,1-3.4,2.48,7.8,7.8,0,0,1-3.93.67h0a19.09,19.09,0,0,1-4.57-.91,16.58,16.58,0,0,1-4-1.9,15.89,15.89,0,0,1-5.32-5.56,14.24,14.24,0,0,1-1.78-7.58l.08-.94a29.17,29.17,0,0,1,.43-3.12,36.9,36.9,0,0,1,1.06-4.2,35.84,35.84,0,0,1,3.4-7.52,22.27,22.27,0,0,1,4.94-5.92,12.86,12.86,0,0,1,5.16-2.6,9.38,9.38,0,0,1,3-.25A12.37,12.37,0,0,1,318.35,126.94Zm-3.77,3.13a12.35,12.35,0,0,0-3.09,3.71,26.15,26.15,0,0,0-1.5,2.95c-.48,1.1-.93,2.24-1.36,3.4a52.67,52.67,0,0,0-1.58,5.65,36.38,36.38,0,0,0-.8,5.43,11.1,11.1,0,0,0,.18,2.9,15.3,15.3,0,0,0,3.54,7.45,5.33,5.33,0,0,0,3.72,2c1.07.09,2.18-.77,3.31-2.57a30.46,30.46,0,0,0,3-6.7,42.34,42.34,0,0,0,1.22-4.45,45.63,45.63,0,0,0,.82-4.71,34.89,34.89,0,0,0,.3-3.72,20.24,20.24,0,0,0-.08-3.43,12.27,12.27,0,0,0-1.41-4.89,3.93,3.93,0,0,0-3.4-2,2.68,2.68,0,0,1-.46-1.61A2.45,2.45,0,0,0,314.58,130.07Z"/>
      <path class="cls-3" d="M330.39,131.39v-.13a1.71,1.71,0,0,1,.32-.87,1.37,1.37,0,0,1,.65-.56,2.73,2.73,0,0,1,1-.08,4.06,4.06,0,0,1,1.14.31,6.41,6.41,0,0,1,2.08,1.26,3.89,3.89,0,0,1,1.2,1.85,16.39,16.39,0,0,1,.57,2.68,15.5,15.5,0,0,1,0,3.44,20.23,20.23,0,0,1,1-1.88,21.61,21.61,0,0,1,2.35-3.37,14.65,14.65,0,0,1,1.64-1.81,10.54,10.54,0,0,1,1.83-1.47,7.37,7.37,0,0,1,1.89-.79,3.74,3.74,0,0,1,1.41-.12,2.36,2.36,0,0,1,.49.1,4.92,4.92,0,0,1,3.31,2.43,13,13,0,0,1,1.48,4.72,31.36,31.36,0,0,1,.07,6.47q-.24,3.54-.77,7.15c-.23,1.57-.45,3.1-.67,4.58s-.47,2.91-.64,4.22a42.92,42.92,0,0,0-.51,6.09c0,1.57.44,2.35,1.28,2.35a2,2,0,0,1,.16,1,3,3,0,0,1-.9,1.71,3.63,3.63,0,0,1-3.24,1.1l-.18,0a5.25,5.25,0,0,1-2.38-1,9.64,9.64,0,0,1-2.52-2.57q-1.38-1.92-.93-6.52a94.86,94.86,0,0,1,1.49-9.69c.57-2.71,1.16-5.32,1.8-7.85s1-4.58,1.25-6.19a9.48,9.48,0,0,0,.18-2.15c0-.51-.12-.81-.35-.89a2.36,2.36,0,0,0-2,.37,11.54,11.54,0,0,0-2.32,1.87,24.43,24.43,0,0,0-3.11,4.1,8.29,8.29,0,0,0-1.35,3.28c0,1-.08,2.21-.2,3.55s-.2,2.71-.35,4.17c-.3,2.71-.63,5.42-1,8.15a56.27,56.27,0,0,1-1.28,6.46,2.28,2.28,0,0,1-1.83,1.12,3.48,3.48,0,0,1-3.71-2.07,5.5,5.5,0,0,1-.48-2.31,13.73,13.73,0,0,1,.17-1.57q.12-1.11.33-2.67c.24-1.93.53-4.24.88-6.91s.66-5.32.94-7.94q.5-5,.6-8.88C331.26,133.08,331,131.67,330.39,131.39Z"/>
      <path class="cls-3" d="M376.83,139.5c-.18,1.24-.73,1.84-1.66,1.77s-1.53-.66-1.8-1.79a3,3,0,0,0,.44-1.3,2.81,2.81,0,0,0-.18-1.12,2.88,2.88,0,0,0-1.52-1.53,3.6,3.6,0,0,0-2.23-.27,3.28,3.28,0,0,0-1.14.54,2.84,2.84,0,0,0-.86,1.09,4.15,4.15,0,0,0-.36,2.44,11.45,11.45,0,0,0,.78,3,46.42,46.42,0,0,0,3.33,6.83,69,69,0,0,1,3.8,7.37,32.9,32.9,0,0,1,1.65,4.64,10.56,10.56,0,0,1,.2,3.72,2.36,2.36,0,0,1-.11.44,12.94,12.94,0,0,1-1.72,4.36,8.74,8.74,0,0,1-9.12,3.91l-.4-.06a19,19,0,0,1-6.4-2.29,7.22,7.22,0,0,1-2.32-2,10.19,10.19,0,0,1-1.45-2.52,13.09,13.09,0,0,1-.88-5.15,20.31,20.31,0,0,1,.23-3.33q.08-.45.18-.84a4.49,4.49,0,0,1,.57-1.27,4.89,4.89,0,0,1,.83-.86,3.09,3.09,0,0,1,2.92-.57,1.61,1.61,0,0,1,1.2,2.07,2.7,2.7,0,0,0-1.65,2.32,6.86,6.86,0,0,0,.59,3.56,8.07,8.07,0,0,0,1.46,2.24,6.26,6.26,0,0,0,2.14,1.63,5.3,5.3,0,0,0,2.24.5,5.82,5.82,0,0,0,2.55-.58,2.67,2.67,0,0,0,1.28-1.11,3.65,3.65,0,0,0,.38-1.76,12.19,12.19,0,0,0-.9-4.52c-.61-1.77-1.34-3.65-2.16-5.63q-1-2.49-2-5.07a43.63,43.63,0,0,1-1.6-5,18.13,18.13,0,0,1-.65-4.34,7.15,7.15,0,0,1,.72-3.57,6.77,6.77,0,0,1,3.87-3.32,7.94,7.94,0,0,1,2.57-.35,7.46,7.46,0,0,1,1.16.1,7,7,0,0,1,1.35.36,7.79,7.79,0,0,1,3.75,2.67A5.32,5.32,0,0,1,376.83,139.5Z"/>
    </g>
    <g>
      <path class="cls-4" d="M102.31,152.45a66.63,66.63,0,0,0-24.66-18.09c-1.22-.5-2.66-.92-3.6.49a3.87,3.87,0,0,0-.19,3.5c.93,2.21,2.82,2.87,4.58,3.44,7.6,2.43,13.56,5.45,23.87,10.66"/>
      <path class="cls-4" d="M102.49,156.27a53.87,53.87,0,0,0-28.19-3.81c-1.27.18-2.71.53-3.13,2.31a3.66,3.66,0,0,0,.92,3.32c1.54,1.54,3.47,1.17,5.25.77,7.71-1.71,14.1-2,25.15-2.59"/>
      <path class="cls-4" d="M102,160.74a61,61,0,0,0-26,14.26c-1,.94-2.17,2.16-1.86,4a2.78,2.78,0,0,0,2,2.33c1.93.39,3.47-1.14,4.88-2.6,6.08-6.3,11.53-10.57,21-18"/>
    </g>
    <g>
      <path class="cls-4" d="M385.64,148a66.56,66.56,0,0,1,29.14-9.29c1.31-.09,2.81,0,3.25,1.6a3.88,3.88,0,0,1-.94,3.39c-1.58,1.79-3.58,1.82-5.43,1.79-8-.11-14.58.85-26,2.51"/>
      <path class="cls-4" d="M384.26,151.53a53.87,53.87,0,0,1,27.93,5.37c1.14.57,2.4,1.37,2.23,3.19a3.63,3.63,0,0,1-1.93,2.84c-1.95,1-3.66,0-5.22-.93-6.76-4.07-12.72-6.41-23-10.47"/>
      <path class="cls-4" d="M383.32,155.94a60.82,60.82,0,0,1,20.13,21.8c.69,1.22,1.37,2.74.5,4.37a2.77,2.77,0,0,1-2.69,1.55c-1.95-.24-2.92-2.19-3.79-4-3.75-7.91-7.56-13.69-14.15-23.7"/>
    </g>
  </g>
</svg>
