<svg xmlns="http://www.w3.org/2000/svg" viewBox="0 0 216.86 216.86">
  <defs>
    <style>
      .cls-1 {
        fill: #1a66de;
      }

      .cls-2 {
        fill: #4dce73;
      }

      .cls-3 {
        fill: #fff;
      }
    </style>
  </defs>
  <g id="Maracas">
    <g>
      <path id="blue" class="cls-1" d="M185.1,31.76a108.42,108.42,0,0,0-153.34,0L185.1,185.1A108.43,108.43,0,0,0,185.1,31.76Z"/>
      <path id="green" class="cls-2" d="M31.76,185.1a108.43,108.43,0,0,0,153.34,0L31.76,31.76A108.42,108.42,0,0,0,31.76,185.1Z"/>
    </g>
    <path id="maracas-2" data-name="maracas" class="cls-3" d="M174.64,56.7c-3.91-9.4-10.79-16.16-19.35-19.05S137.17,36,128.38,41.09c-8.38,4.86-14.68,12-19.24,22-.15.34-.31.67-.51,1.1l-.14.3A50.39,50.39,0,0,0,92.05,46.37C82.75,40.29,73.74,38.22,64.5,40,52.77,42.33,44.88,49.62,41,61.69c-3.5,11-2.54,22.14,2.84,33,9.3,18.83,22.82,28,41.34,28.16a1.37,1.37,0,0,1,1,.66c1.52,3.24,4.21,4.82,8.23,4.82h0a1.91,1.91,0,0,1,2,1.29c3.19,6.52,6.2,12.54,9.2,18.39a2.66,2.66,0,0,1,0,2.58l-.84,1.91c-2.07,4.73-4.22,9.62-6.2,14.49a9.87,9.87,0,0,0,5.81,13.09,10.19,10.19,0,0,0,3.5.63,9.79,9.79,0,0,0,4.17-.93,10.23,10.23,0,0,0,5.27-5.91l.55-1.58.13.09.27.21c4.19,3.87,9.7,4.2,13.73.82s4.7-8.91,1.6-13.66q-1.38-2.11-2.77-4.21c-1.61-2.44-3.27-5-4.86-7.46a2.89,2.89,0,0,1-.36-2.06c1-3.52,2-7.08,3.07-10.53.55-1.87,1.11-3.74,1.65-5.62a1.59,1.59,0,0,1,1.48-1.33c4.3-.75,6.93-3,7.6-6.4,1.37-.46,2.73-.87,4.05-1.26a54.41,54.41,0,0,0,8-2.86c10.17-4.93,18.54-14.53,23-26.34S179,67.16,174.64,56.7ZM43.5,66.35A27.86,27.86,0,0,1,56.57,46.63,27,27,0,0,1,70.4,42.88a31.32,31.32,0,0,1,10.49,1.87Zm-.85,5.1a1.8,1.8,0,0,1,.86-1.13c13.73-8,27.43-15.88,40.73-23.53a2.17,2.17,0,0,1,1-.24,1.21,1.21,0,0,1,.45.08c1,.45,1.89,1,3,1.59l1.17.66L42.6,76.12c0-.46,0-.9,0-1.32C42.58,73.57,42.57,72.51,42.65,71.45Zm1.19,8C59.83,70.14,76,60.8,92,51.66a1.45,1.45,0,0,1,.67-.14,1.46,1.46,0,0,1,.92.25c2.35,2.31,4.79,4.83,7.68,7.91a2,2,0,0,1,.36,1.41c-.44,2.34-.93,4.64-1.44,7.08q-.24,1.13-.48,2.28l-9-2.93c-1.21-.39-2-.55-2.49-.24s-.78,1-1,2.26c-.51,2.36-1,4.72-1.53,7.13l-.45,2.09-2.64-.85-6.45-2.08c-1.06-.34-1.83-.49-2.38-.18s-.81,1.08-1,2.2c-.45,2.15-.9,4.29-1.36,6.5l-.59,2.79-2.84-.93-6.19-2c-1.13-.38-1.9-.53-2.43-.22s-.77,1-1,2.15L56.76,93l-.53,2.45-2.15-.7c-2.51-.82-4.88-1.59-7.27-2.43A1.77,1.77,0,0,1,46,91.29c-1.12-3.88-2-7.14-2.87-10.46A1.76,1.76,0,0,1,43.84,79.42Zm6.53,17.75,5.38,1.75c1.3.42,2.11.59,2.69.26s.84-1.16,1.13-2.55c.43-2,.86-4.09,1.31-6.18.19-.91.39-1.82.58-2.75l2.56.83,6.5,2.11c1.13.36,1.88.52,2.41.22s.77-1,1-2.19l2-9.32,2.7.88,6.4,2.07c1.06.34,1.83.49,2.37.17s.81-1.08,1-2.21l1.89-9s0-.05,0-.09a1.49,1.49,0,0,0,.11-.15l2.34.77,3.87,1.26.87.29c.77.25,1.57.51,2.36.75a2.43,2.43,0,0,0,1.93,0,2.4,2.4,0,0,0,.91-1.68c.4-1.87.8-3.77,1.23-5.77l.48-2.32c.14.24.27.47.4.68.33.56.59,1,.83,1.47a56.36,56.36,0,0,1,5,14.54,8.24,8.24,0,0,1,.19,1.49C103.28,87,95,91.73,87,96.35c-8.6,5-17.49,10.1-25.71,14.82a6.89,6.89,0,0,1-.88-.55,46.05,46.05,0,0,1-11.84-14Zm63.6-.35.63-4.66,45,16.29-1.29,1c-1.1.85-2.33,1.8-3,2.38-.16,0-.61-.21-1.44-.52-7.47-2.75-15.08-5.51-22.44-8.18l-5.18-1.88-8.19-3Zm-2.86-26.77c-.1-.27-.25-.62-.41-1-.22-.53-.47-1.13-.64-1.59-.1-.25-.07-.28,0-.34a.48.48,0,0,0,.1-.15c.13-.28.39-.81.56-1.15.1.37.22.68.34,1s.15.42.23.67c.2.57.54,1.41.82,2.08L114,74.29c.48,1.18.85,1.86,1.43,2.07s1.3-.07,2.41-.67l4-2.12,4-2.12a.91.91,0,0,1,.21,0l.23,0,.84,2.1c.7,1.74,1.41,3.49,2.11,5.25.81,2,1.21,3,1.94,3.29s1.7-.26,3.64-1.3l4.73-2.52,2.37-1.27,2.93,7.24c.24.6.48,1.2.73,1.79.45,1.06.84,1.56,1.34,1.74s1.1,0,2.07-.47q2.12-1.12,4.22-2.26l3-1.59c.33-.18.67-.34,1-.51l.45-.21.95,2.36c.89,2.22,1.77,4.4,2.65,6.57.39,1,.76,1.62,1.35,1.83a2.87,2.87,0,0,0,2.17-.52c1.58-.83,3.14-1.67,4.78-2.55l2.07-1.11v.13a1.24,1.24,0,0,1-.05.46,50.21,50.21,0,0,1-8.46,14.79,14.34,14.34,0,0,0-1,1.27l-13.65-5c-10.85-4-22.07-8.1-32.56-11.88l-1.2-.42A56.1,56.1,0,0,0,111.11,70.05Zm49.33,10.54c-.47-1.16-.84-1.84-1.42-2a1.1,1.1,0,0,0-.41-.07,4.82,4.82,0,0,0-2,.74l-5.91,3.16-2.38,1.27-.21-.52c-1.13-2.76-2.22-5.41-3.3-8.06-.51-1.26-.91-2-1.51-2.19s-1.36.09-2.56.74l-5.65,3.06L132.6,78l-1.08-2.7c-.87-2.17-1.7-4.26-2.55-6.35-.44-1.07-.81-1.57-1.31-1.75s-1.09,0-2.09.49c-2,1.07-4.06,2.15-6.12,3.26l-2.54,1.36-.85-2.09c-1-2.38-1.87-4.63-2.75-6.92a1.87,1.87,0,0,1,.15-1.3,30.85,30.85,0,0,1,6.1-9.17c.47-.71,1-.7,1.72-.43,14.23,5.17,33,12,52.05,18.86.89.32,1.17.74,1.09,1.6-.12,1.15-.23,2.29-.35,3.44-.23,2.36-.47,4.8-.74,7.19a1.94,1.94,0,0,1-.77,1.27c-2.11,1.18-4.23,2.3-6.47,3.49L164,89.37l-.66-1.63Zm-8.89,33.49a27,27,0,0,1-10.24,3.71c-11.37,1.63-22-3.63-29.18-14.45a26.44,26.44,0,0,0,1.1-3.16Zm-78.18,3.27c.39-.24.73-.45,1.08-.65l8-4.64c7.36-4.23,15-8.61,22.41-13l6.21-3.66a33.8,33.8,0,0,1-16.91,20.43c-7,3.56-14.5,4.17-21.2,1.74Zm43.32,8.14c-.67,1.4-1.42,3-2.28,4.83l-1.27-1.92c-1.58-2.38-3.06-4.63-4.51-6.91a1.48,1.48,0,0,1,.16-1.2c2.21-3.78,2.24-7,.08-10a1.28,1.28,0,0,1,0-1c.33-.64.73-1.25,1.12-1.85l.36-.57,1,1.19c1.19,1.44,2.31,2.81,3.42,4.23a1.05,1.05,0,0,1,.1.88c-1.62,3.36-1.06,6.54,1.7,9.7a9,9,0,0,1,.87,1.18Zm-10.45-12.85a5.36,5.36,0,0,1,.43,4c-.63,2.41-2.66,4.75-5.57,6.42s-5.95,2.25-8.35,1.59a5.35,5.35,0,0,1-3.25-2.39A29.26,29.26,0,0,0,106.24,112.64Zm21,16.2L123,143.26l-1.31-2c-1.58-2.41-3.73-5.7-5-7.4.14-.36.87-2.27,1.84-4.49.64-1.29.89-1.89,1.16-2.52.09-.22.18-.44.3-.7Zm-8.13-8.18c-1.68-1.87-2.08-3.6-1.25-5.57a30.07,30.07,0,0,0,18.46,6.49c-.22.29-.42.58-.59.83a4.27,4.27,0,0,1-1.26,1.42,9.82,9.82,0,0,1-3.89,1.36A13.38,13.38,0,0,1,119.09,120.66Zm-7.91-34.44c0,1.83,0,3.88-.11,5.41l-.83.46-1.8,1c-13.11,7.59-26.67,15.44-39.6,22.86-.15-.08-.51-.28-.91-.45-.93-.43-1.82-1-2.77-1.51l-1.07-.62Zm8.34,81.89c-4.15-8.35-8.39-16.82-12.49-25L99.48,128l-.06-.11,6.67-3.89,10.56,16q7.18,10.89,14.38,21.78a6.47,6.47,0,0,1,.28,7.38,6.19,6.19,0,0,1-6.19,3.15C122.64,172.07,120.81,170.71,119.52,168.11ZM171,61.84c1.8.63,2.55,1.52,2.68,3.17.05.64.15,1.26.27,2,0,.3.1.61.16.94L123,49.42l.1-.14a.84.84,0,0,1,.13-.18c3.46-3.23,3.46-3.23,7.87-1.63l7,2.55C148.89,53.92,160,58,171,61.84Zm-39.81-18c2.63-3.14,13.6-5.17,20.2-3.69,9.37,2.11,16,8.13,20.37,18.39ZM115.5,167.66c-.44,2.78-1,5.25-2.7,7.28a6.19,6.19,0,0,1-5.64,2.21,6.75,6.75,0,0,1-5-3.11,5.73,5.73,0,0,1-.56-5.08c1.38-3.71,2.94-7.29,4.6-11.09.67-1.52,1.36-3.1,2-4.69l1.57,3.13c1.89,3.79,3.73,7.45,5.56,11.11l0,.07S115.51,167.63,115.5,167.66ZM46.82,85.36a1.73,1.73,0,0,1-.39-1.12A1.55,1.55,0,0,1,48,82.62a1.47,1.47,0,0,1,1.18.51,1.65,1.65,0,0,1,.39,1.11A1.55,1.55,0,0,1,48,85.87,1.53,1.53,0,0,1,46.82,85.36ZM93,58.61a1.68,1.68,0,0,1-.4-1.11,1.55,1.55,0,0,1,1.58-1.63,1.53,1.53,0,0,1,1.18.51,1.72,1.72,0,0,1,.39,1.11,1.55,1.55,0,0,1-1.57,1.63A1.5,1.5,0,0,1,93,58.61Zm-34.21,47.3a1.66,1.66,0,0,1-.4-1.11A1.55,1.55,0,0,1,60,103.17a1.53,1.53,0,0,1,1.18.51,1.73,1.73,0,0,1,.39,1.12A1.55,1.55,0,0,1,60,106.42,1.47,1.47,0,0,1,58.79,105.91Zm46-26.61a1.71,1.71,0,0,1-.39-1.11A1.55,1.55,0,0,1,106,76.56a1.47,1.47,0,0,1,1.18.52,1.66,1.66,0,0,1,.4,1.11A1.55,1.55,0,0,1,106,79.81,1.49,1.49,0,0,1,104.82,79.3ZM117,84.6a1.53,1.53,0,0,1-1.18-.51,1.72,1.72,0,0,1-.39-1.11A1.55,1.55,0,0,1,117,81.35a1.5,1.5,0,0,1,1.18.51,1.69,1.69,0,0,1,.4,1.12A1.55,1.55,0,0,1,117,84.6Zm4.56-26.95a1.66,1.66,0,0,1,.4,1.11,1.55,1.55,0,0,1-1.58,1.63,1.5,1.5,0,0,1-1.18-.52,1.69,1.69,0,0,1-.39-1.11,1.54,1.54,0,0,1,1.57-1.62A1.47,1.47,0,0,1,121.54,57.65ZM169,77.75a1.66,1.66,0,0,1-.4-1.11A1.55,1.55,0,0,1,170.2,75a1.49,1.49,0,0,1,1.18.51,1.71,1.71,0,0,1,.39,1.11,1.55,1.55,0,0,1-1.57,1.63A1.47,1.47,0,0,1,169,77.75Zm-8.17,22.53a1.72,1.72,0,0,1-.39-1.11A1.55,1.55,0,0,1,162,97.54a1.5,1.5,0,0,1,1.18.51,1.68,1.68,0,0,1,.4,1.11,1.55,1.55,0,0,1-1.58,1.63A1.53,1.53,0,0,1,160.85,100.28Z"/>
  </g>
</svg>
