<svg xmlns="http://www.w3.org/2000/svg" viewBox="0 0 216.86 216.86">
  <defs>
    <style>
      .cls-1 {
        fill: #1a66de;
      }

      .cls-2 {
        fill: #4dce73;
      }

      .cls-3 {
        fill: #fff;
      }
    </style>
  </defs>
  <g id="Mic">
    <g>
      <path id="blue" class="cls-1" d="M185.1,31.76a108.42,108.42,0,0,0-153.34,0L185.1,185.1A108.43,108.43,0,0,0,185.1,31.76Z"/>
      <path id="green" class="cls-2" d="M31.76,185.1a108.43,108.43,0,0,0,153.34,0L31.76,31.76A108.42,108.42,0,0,0,31.76,185.1Z"/>
    </g>
    <path id="white" class="cls-3" d="M140.06,48.88c1.35.3,2.72.53,4.05.9a24.32,24.32,0,0,1,15.11,34.67,7.72,7.72,0,0,0-.51,2.18c-.06.3,0,.62-.05.92-.35,2.34-4.07,5.57-6.44,5.62a2.05,2.05,0,0,0-1.07.27,24.62,24.62,0,0,1-15,4,5.28,5.28,0,0,0-.55.06c-.16,1.85-1.41,3-2.68,4.18a4.46,4.46,0,0,1-5.18.81,1.26,1.26,0,0,0-1.68.26Q108.3,119,90.51,135.23c-2.15,2-4.32,3.89-6.44,5.88a6.7,6.7,0,0,1-6.64,1.74,1.38,1.38,0,0,0-1.08.28c-.79.68-1.49,1.46-2.24,2.19a4.79,4.79,0,0,1-6.13,1c-.62-.32-.89-.11-1.27.28-2.07,2.09-4.18,4.15-6.24,6.26A6.73,6.73,0,1,0,70,162.36q14.79-14.73,29.52-29.51a7.93,7.93,0,0,1,11.93,10.44c-2,2.27-4.21,4.33-6.37,6.45a1.7,1.7,0,0,1-2.49.08,1.73,1.73,0,0,1,.08-2.58c2-2,4-3.93,5.9-6a4.4,4.4,0,0,0-1.21-7.13,4.25,4.25,0,0,0-4.69.56,13.39,13.39,0,0,0-1.09,1L72.74,164.62c-4.4,4.39-10.86,4.48-14.95.25a10.17,10.17,0,0,1,0-14.18c2.29-2.41,4.72-4.69,7-6.95a21.41,21.41,0,0,1-.84-2.79A4.5,4.5,0,0,1,65,137.29a7.66,7.66,0,0,1,1-1.08c1.37-1.14,2.33-2.27,1.74-4.36-.46-1.64.37-3.28,1.51-4.59s2.39-2.65,3.61-4a1.75,1.75,0,1,1,2.58,2.33c-1.08,1.22-2.21,2.4-3.28,3.62a3,3,0,0,0,.13,4.62c1.5,1.52,3,3,4.52,4.52s3.15,1.64,4.88.06l39.78-36.27,3-2.77a13.54,13.54,0,0,1-1.64-1.27,1.65,1.65,0,0,1,0-2.4,1.67,1.67,0,0,1,2.49,0c1.07,1,2.08,2.08,3.14,3.11s1.48.84,2.62-.3,1.26-1.66.32-2.61q-8.34-8.37-16.69-16.7c-1-1-1.47-.91-2.7.33s-1.2,1.62-.21,2.61q4,4,8.05,8.06a1.77,1.77,0,0,1,.39,2.49c-.66,1-1.84,1-2.8,0-2.07-2-4.11-4.11-6.51-6.52a4.15,4.15,0,0,1-.49,1q-14.59,16-29.2,32.07c-1.24,1.35-2.27,1.61-3.14.78s-.68-1.8.52-3.12l29.21-32c.26-.28.51-.58.76-.85-2.7-4.12.91-8.27,4.52-9,.19-2,.28-4.08.57-6.1a23.24,23.24,0,0,1,3.39-8.83,6.25,6.25,0,0,0,.53-1.7c.06-.22,0-.46.06-.69.4-2.54,4.35-5.7,6.92-5.57a2.15,2.15,0,0,0,1.1-.18,24.87,24.87,0,0,1,9.12-2.91,1.1,1.1,0,0,0,.29-.17Zm-12.05,6a15.13,15.13,0,0,1,1.34.81,8.25,8.25,0,0,1,1,1,1.71,1.71,0,0,1,.07,2.5,1.73,1.73,0,0,1-2.5,0c-.66-.59-1.27-1.25-1.9-1.87-2.21-2.2-1.74-2.19-4,0-1.17,1.16-1.16,1.23,0,2.4L150.33,88c2.27,2.27,1.8,2.25,4,0,1.16-1.15,1.15-1.21,0-2.4L133.86,65.12a10.31,10.31,0,0,1-.73-.75,1.73,1.73,0,0,1,2.45-2.45,10.45,10.45,0,0,1,.83.8q9.42,9.42,18.82,18.84a6.63,6.63,0,0,1,.76,1.19,20.65,20.65,0,0,0-28-27.89Zm20.14,36.28L119.73,62.71a2.29,2.29,0,0,0-.18.26A20.9,20.9,0,0,0,116.92,75a4,4,0,0,0,1.31,2.7c4.55,4.49,9.18,8.91,13.52,13.61a7.77,7.77,0,0,0,7,2.65A21.34,21.34,0,0,0,148.15,91.14Zm-78,45.65-1.85,2.13a7.81,7.81,0,0,0-.56.59c-.69.9-.51,1.45.94,2.9,1.22,1.22,1.78,1.37,2.66.71l.09-.08L74,140.62Zm44.28-33.69a11.39,11.39,0,0,1-1.55,2.53c-3,2.82-6,5.55-9.12,8.27a3.39,3.39,0,0,1-4.9-.15c-.64-.61-1.28-1.24-1.88-1.9a3.34,3.34,0,0,1-.14-4.63q4.22-4.8,8.57-9.48a3.31,3.31,0,0,1,4.71-.17,31.58,31.58,0,0,1,3.1,3.13A11.9,11.9,0,0,1,114.43,103.1Zm-6.64-2.81-8.19,9.06,1.92,1.88L110.6,103Z"/>
  </g>
</svg>
