<svg xmlns="http://www.w3.org/2000/svg" viewBox="0 0 216.86 216.86">
  <defs>
    <style>
      .cls-1 {
        fill: #1a66de;
      }

      .cls-2 {
        fill: #4dce73;
      }

      .cls-3 {
        fill: #fff;
      }
    </style>
  </defs>
  <g id="Noise">
    <g>
      <path id="blue" class="cls-1" d="M185.1,31.76a108.42,108.42,0,0,0-153.34,0L185.1,185.1A108.43,108.43,0,0,0,185.1,31.76Z"/>
      <path id="green" class="cls-2" d="M31.76,185.1a108.43,108.43,0,0,0,153.34,0L31.76,31.76A108.42,108.42,0,0,0,31.76,185.1Z"/>
    </g>
    <path id="white" class="cls-3" d="M136.56,58.76v99.33a2,2,0,0,1-4,0V58.76a2,2,0,1,1,4,0Zm11.07,21.08a2,2,0,0,0-2,2V135a2,2,0,0,0,4,0V81.84A2,2,0,0,0,147.63,79.84ZM121.5,74a2,2,0,0,0-2,2v63.86a2,2,0,0,0,4,0V76A2,2,0,0,0,121.5,74ZM82.3,79.84a2,2,0,0,0-2,2v46.57a2,2,0,0,0,4,0V81.84A2,2,0,0,0,82.3,79.84ZM69.23,67.3a2,2,0,0,0-2,2v78.17a2,2,0,0,0,4,0V69.3A2,2,0,0,0,69.23,67.3Zm-13.07,18a2,2,0,0,0-2,2v41.11a2,2,0,0,0,4,0V87.3A2,2,0,0,0,56.16,85.3ZM160.7,90.72a2,2,0,0,0-2,2V124a2,2,0,1,0,4,0V92.72A2,2,0,0,0,160.7,90.72Zm-52.27,5.17a2,2,0,0,0-2,2v21a2,2,0,0,0,4,0v-21A2,2,0,0,0,108.43,95.89Zm-13.07,5.52a2,2,0,0,0-2,2v9.94a2,2,0,0,0,4,0v-9.94A2,2,0,0,0,95.36,101.41ZM43.09,98.19a2,2,0,0,0-2,2v15.34a2,2,0,0,0,4,0V100.19A2,2,0,0,0,43.09,98.19Zm130.67,0a2,2,0,0,0-2,2v15.34a2,2,0,0,0,4,0V100.19A2,2,0,0,0,173.76,98.19Z"/>
  </g>
</svg>
