<svg id="Pandeiro" xmlns="http://www.w3.org/2000/svg" xmlns:xlink="http://www.w3.org/1999/xlink" viewBox="0 0 216.86 216.86">
  <defs>
    <style>
      .cls-1 {
        fill: url(#Gradiente_sem_nome_9);
      }
    </style>
    <linearGradient id="Gradiente_sem_nome_9" data-name="Gradiente sem nome 9" x1="31.76" y1="185.1" x2="185.1" y2="31.76" gradientUnits="userSpaceOnUse">
      <stop offset="0" stop-color="#ff9304"/>
      <stop offset="1" stop-color="#ff52b1"/>
    </linearGradient>
  </defs>
  <path id="pink" class="cls-1" d="M216.86,108.43A108.43,108.43,0,1,1,108.43,0,108.44,108.44,0,0,1,216.86,108.43Zm-92.2,62.8a64.28,64.28,0,0,0,16.7-6.92,16.88,16.88,0,0,0,23-22.92,63.57,63.57,0,0,0,7-16.75,16.88,16.88,0,0,0,0-32.43,63.84,63.84,0,0,0-6.93-16.73,16.88,16.88,0,0,0-22.93-23,64.57,64.57,0,0,0-16.75-7,16.88,16.88,0,0,0-32.42,0,64.43,64.43,0,0,0-16.75,7,16.88,16.88,0,0,0-22.93,23A64.21,64.21,0,0,0,45.6,92.21a16.88,16.88,0,0,0,0,32.43,63.94,63.94,0,0,0,7,16.75,16.88,16.88,0,0,0,22.95,22.92,64.49,64.49,0,0,0,16.71,6.92,16.88,16.88,0,0,0,32.46,0Zm-3.48.84a13.88,13.88,0,0,1-25.5,0A65.52,65.52,0,0,0,121.18,172.07Zm-72.9-49a60.5,60.5,0,0,1-1.45-8.63,62.38,62.38,0,0,1,.37-14.87l-1.49-.21,1.49.16v-.07h0c0-.11,0-.22,0-.32a61.29,61.29,0,0,1,8.93-23.86h0l0,0,0,0,0,0h0l0-.06h0l.09-.13,0-.07c.22-.35.45-.7.68-1h0l.67-1h0l.29-.42h0l0,0c.32-.45.65-.89,1-1.32h0l0,0,0-.05,0,0h0l.33-.44.45-.58.17-.21h0c.23-.29.47-.57.71-.86a1.63,1.63,0,0,0,.17-.2l.43-.51,0,0,0,0c.27-.32.54-.64.82-1l0,0h0l.67-.72.35-.36.1-.11,0,0,0,0,.07-.08,0,0c.68-.71,1.38-1.4,2.07-2.07l.35-.33,0,0,0,0,.12-.11c.26-.25.52-.5.79-.74l0,0h0l.66-.56.07-.06.37-.32h0l0,0,.06,0v0l.07,0,0,0,0,0,.58-.48c.25-.22.5-.43.76-.63h0l.38-.3.45-.34.19-.15,0,0h0l.09-.07,0,0,1.4-1,.27-.19,0,0h0l.08-.06h0l0,0h0l0,0h0l0,0h0l0,0H73v0h0v0h.09l0,0h.06l.12-.08.26-.17h0l.16-.12.07,0,.07,0h0c.36-.25.73-.49,1.1-.72l.69-.44h0A61.32,61.32,0,0,1,93.8,48.28l.14,0H94l.2,0h0c.79-.18,1.62-.36,2.53-.53l.39-.08h0l.56-.1.32,0c.83-.14,1.66-.26,2.5-.37h0l.11,0h0l.82-.1h.26l2-.18.32,0h0l.37,0,.39,0h.38a63,63,0,0,1,6.59,0h0l.51,0,.35,0,.46,0,1.27.11h0l.79.08h.14l.73.09.16,0c.84.1,1.68.23,2.51.37h0l.32,0h0l.42.07.11,0h0l.69.14h0c.94.18,1.81.37,2.63.57h0a61.17,61.17,0,0,1,18.08,7.61h0l.09.06,0,0c.27.16.53.33.78.5.4.25.79.51,1.18.77h0l0,0h0l.5.34.42.3h0v0l0,0,.06,0h0l1,.76.63.48h0l.21.16,0,0,0,0h0l.09.07.69.53h0l.17.14,0,0,.05,0h0l.86.72h0l.45.39h0l.36.31.75.64h0l1,.94.33.31.15.14c.74.71,1.49,1.46,2.21,2.23h0l.34.36.08.08v0h0l.57.61h0l0,0,.65.75.25.3.42.49v0l0,0,0,0,.79,1,0,0h0l0,0,0,.06v0l0,0h0l0,0h0l0,0,0,0,0,0,0,0,.79,1v0l0,0,.79,1.07h0v0a1.09,1.09,0,0,1,.13.17h0v0c.05.07.11.14.16.22h0c.27.39.55.78.81,1.18h0l0,0,0,0h0l.05.07v0c.26.39.52.78.77,1.17l0,.09,0,0a61.41,61.41,0,0,1,8.93,23.9c0,.09,0,.18,0,.28h0v.1h0a61.93,61.93,0,0,1-1.08,23.5l-.21.88A61.95,61.95,0,0,1,48.5,124Zm114.16,21.35a13.88,13.88,0,0,1-18,18A65.29,65.29,0,0,0,162.44,144.41Zm-90,18a13.89,13.89,0,0,1-18-18A65.46,65.46,0,0,0,72.45,162.44ZM172.63,99.13l0-.12c0-.09,0-.19,0-.29-.16-1.08-.33-2.09-.52-3a13.88,13.88,0,0,1,0,25.51q.17-.83.3-1.65A64.89,64.89,0,0,0,172.63,99.13ZM44.29,98.71a2.7,2.7,0,0,0,0,.28v.16A65.31,65.31,0,0,0,43.7,113a64.4,64.4,0,0,0,1.08,8.22,13.89,13.89,0,0,1,0-25.51C44.62,96.63,44.45,97.64,44.29,98.71Zm126.84.52Zm0,0h0l1.49-.21Zm-8.91-27.08v0l0-.06c-.32-.47-.64-.93-1-1.39h0l0,0,0-.05,0,0-.07-.1,0,0-.06-.08c-.24-.33-.48-.66-.73-1l-.08-.11h0l0-.07h0l0-.06,0,0h0v0l0,0h0l0,0c-.3-.4-.61-.8-.92-1.19h0c-.3-.38-.61-.74-.91-1.1l-.43-.51,0,0,0,0-.16-.2-.75-.86h0c-.24-.27-.48-.53-.73-.79l-.67-.71c-.33-.34-.65-.69-1-1l-.77-.74-.38-.36h0l-.32-.31,0,0h0L152.7,61h0c-.31-.3-.62-.6-.94-.89h0c-.26-.24-.53-.46-.8-.69l-.36-.31h0l0,0,0,0h0l-.45-.38L149.3,58l-.37-.29h0c-.24-.2-.49-.39-.74-.58L148,57l-.14-.11-.69-.52c-.4-.3-.8-.6-1.21-.88l-.05,0-.39-.28h-.14l0,0h0l0,0h-.14l0,0h-.08l0,0h0L145,54.8h0l0,0-.21-.14h0l-.3-.2a13.89,13.89,0,0,1,18,18l-.22-.32ZM72.46,54.42l-.54.36h0l0,0h0l0,0-.11.08c-.25.17-.5.34-.74.52l0,0,0,0-.07.05h0l-.2.14-1.21.9-.34.26h0l-.18.14-.52.39-.38.3v0h0l0,0-.09.07h0l0,0,0,0h0c-.2.15-.39.31-.58.47l-.88.75h0l-.34.29h0l0,0,0,0h0c-.25.21-.49.41-.73.63h0c-.31.27-.61.56-.9.84l-.19.18-.69.66c-.26.24-.52.48-.77.73s-.65.67-1,1l-.35.37h0l-.33.35,0,0h0c-.23.23-.45.47-.66.71l0,0h0l0,0-1,1.12-.4.47,0,.07,0,0h0l0,0a2.2,2.2,0,0,1-.2.23l-.62.76,0,0h0l0,0,0,0v0l0,0h0l-.61.78-.43.56v0h0c-.35.47-.7.93-1,1.41h0v0l0,0-.11.15,0,0-.13.18c-.21.3-.43.6-.63.91l-.08.11h0l0,0,0,0h0l0,.05-.13.18a13.87,13.87,0,0,1,18-18Zm48.72-9.62-.91-.18h-.06l-.59-.1-.3,0h0l-.11,0h0l-.09,0c-.74-.12-1.47-.23-2.21-.33l-.17,0-1.08-.13h-.1l-.24,0h-.15c-.73-.07-1.46-.14-2.19-.19l-.32,0h0l-.4,0h-.31c-.49,0-1-.05-1.48-.06h0c-1.83-.06-3.68,0-5.51.07h0l-.56,0-.34,0h-.3c-.72.06-1.43.12-2.14.2l-.25,0h0c-.35,0-.69.08-1,.12-.8.1-1.59.22-2.39.34l-.24,0h0l-.3,0h-.07l-.34,0-.24,0h0l-.17,0h-.09l-.42.08h0l-.21,0a13.88,13.88,0,0,1,25.5,0Zm26.6,103a55.74,55.74,0,0,0,9.39-66.27l.12,0-.91-1.54A54.62,54.62,0,0,0,138,61.23a55.66,55.66,0,1,0,9.78,86.52Zm-39.35,4.92a13.91,13.91,0,0,1,11.87,6.68,52.57,52.57,0,0,1-23.74,0A13.91,13.91,0,0,1,108.43,152.67ZM79.27,137.59h0a16.91,16.91,0,0,0-17.16-4.11,51.8,51.8,0,0,1-4.15-10,16.91,16.91,0,0,0,9.23-15h0a16.91,16.91,0,0,0-9.25-15.06,51.68,51.68,0,0,1,4.14-10A16.89,16.89,0,0,0,83.37,62.06a52.49,52.49,0,0,1,10-4.14,16.88,16.88,0,0,0,30.13,0A52.19,52.19,0,0,1,133.36,62a16.16,16.16,0,0,0-.71,5,16.87,16.87,0,0,0,22.13,16.34,52.31,52.31,0,0,1,4.14,10,16.88,16.88,0,0,0,0,30.1,51.8,51.8,0,0,1-4.15,10,16.2,16.2,0,0,0-3.05-.69,16.9,16.9,0,0,0-14.11,4.8h0a16.92,16.92,0,0,0-4.12,17.15,52.13,52.13,0,0,1-10,4.14,16.88,16.88,0,0,0-30.07,0,52.31,52.31,0,0,1-10-4.14A16.94,16.94,0,0,0,79.27,137.59Zm-13.76-1.82a13.87,13.87,0,0,1,15.7,13.77,13.65,13.65,0,0,1-.4,3.29A52.53,52.53,0,0,1,64,136.05C64.52,135.93,65,135.84,65.51,135.77Zm74.2,3.94a13.92,13.92,0,0,1,13.12-3.66,52.73,52.73,0,0,1-16.78,16.78,13.89,13.89,0,0,1,2.81-12.18A12.64,12.64,0,0,1,139.71,139.71Zm19.64-43.15a52.44,52.44,0,0,1,0,23.73,13.88,13.88,0,0,1,0-23.73Zm-101.84,0a13.88,13.88,0,0,1,0,23.73,52.44,52.44,0,0,1,0-23.73ZM80.81,64a13.65,13.65,0,0,1,.4,3.29A13.89,13.89,0,0,1,64,80.81,52.53,52.53,0,0,1,80.81,64Zm55.24,0a52.57,52.57,0,0,1,16.2,15.88,14.18,14.18,0,0,1-12.55-3.69,13.24,13.24,0,0,1-4-9.23A13.58,13.58,0,0,1,136.05,64ZM120.3,57.51a13.89,13.89,0,0,1-23.74,0A52.29,52.29,0,0,1,120.3,57.51Z"/>
</svg>
