<svg xmlns="http://www.w3.org/2000/svg" viewBox="0 0 216.86 216.86">
  <defs>
    <style>
      .cls-1 {
        fill: #1a66de;
      }

      .cls-2 {
        fill: #4dce73;
      }

      .cls-3 {
        fill: #fff;
      }
    </style>
  </defs>
  <g id="Repinique">
    <g>
      <path id="blue" class="cls-1" d="M185.1,31.76a108.42,108.42,0,0,0-153.34,0L185.1,185.1A108.43,108.43,0,0,0,185.1,31.76Z"/>
      <path id="green" class="cls-2" d="M31.76,185.1a108.43,108.43,0,0,0,153.34,0L31.76,31.76A108.42,108.42,0,0,0,31.76,185.1Z"/>
    </g>
    <path id="white" class="cls-3" d="M108.43,53.73c-39,0-69.57,12.42-69.57,28.27a11.67,11.67,0,0,0,.1,1.56.48.48,0,0,0-.1.29v63.82a.5.5,0,0,0,.5.5h3a.5.5,0,0,0,.5-.5v-3.44c4.22,4.88,11.6,9.14,21.5,12.37v6a.5.5,0,0,0,.5.5h3a.5.5,0,0,0,.5-.5v-4.81c11.64,3.26,25.48,5,40.07,5A152.12,152.12,0,0,0,147.67,158v4.59a.51.51,0,0,0,.5.5h3a.5.5,0,0,0,.5-.5v-5.76c10.32-3.27,18-7.62,22.33-12.64v1.59a.5.5,0,0,0,.5.5h3a.5.5,0,0,0,.5-.5V82C178,66.15,147.44,53.73,108.43,53.73ZM72.37,109.58v-3.27a157.08,157.08,0,0,0,36.06,4,157.81,157.81,0,0,0,35.32-3.79v3.29a151.58,151.58,0,0,1-35.32,4A150.14,150.14,0,0,1,72.37,109.58Zm71.46-7.31a151.23,151.23,0,0,1-35.4,4,150.14,150.14,0,0,1-36.18-4.2,5.95,5.95,0,0,0-10-3.09C52.46,95.33,45.9,90.64,43.7,85.75c5.17-11.53,33.5-20.52,64.73-20.52s59.56,9,64.73,20.52c-2.24,5-9,9.75-19.07,13.43a6,6,0,0,0-10.26,3.09Zm11.86,3.8v-2.84c0-.09,0-.18,0-.27,8-3,14.12-6.67,17.9-10.8C172,97.29,165.72,102.16,155.69,106.07Zm-95.22-3.38a5.17,5.17,0,0,0,0,.54v2.55c-9.59-3.87-15.57-8.63-17.16-13.62C47,96.17,52.83,99.78,60.47,102.69Zm48-41.46c-29.49,0-55.17,7.21-65.14,18.1,3.8-11.89,32.51-21.6,65.14-21.6s61.34,9.71,65.14,21.6C163.6,68.44,137.92,61.23,108.43,61.23Zm-65.57,38c3.62,4.19,9.66,8,17.58,11v4.48a6,6,0,0,0,3.92,5.6v32c-13.67-4.68-21.5-11.13-21.5-17.74Zm25.5,21.1a6,6,0,0,0,4-5.63v-.85a157.08,157.08,0,0,0,36.06,4A157.74,157.74,0,0,0,143.75,114v.68a6,6,0,0,0,3.92,5.6v33.54a146.11,146.11,0,0,1-39.24,5c-14.29,0-28.5-1.87-40.07-5.26Zm83.31,0a6,6,0,0,0,4-5.63v-4.21c8.28-3.07,14.57-6.94,18.31-11.26v35.36c0,6.77-8.13,13.32-22.33,18Z"/>
  </g>
</svg>
