<svg xmlns="http://www.w3.org/2000/svg" viewBox="0 0 216.86 216.86">
  <defs>
    <style>
      .cls-1 {
        fill: #1a66de;
      }

      .cls-2 {
        fill: #4dce73;
      }

      .cls-3 {
        fill: #fff;
      }
    </style>
  </defs>
  <g id="Snare_drum" data-name="Snare drum">
    <g>
      <path id="blue" class="cls-1" d="M185.1,31.76a108.42,108.42,0,0,0-153.34,0L185.1,185.1A108.43,108.43,0,0,0,185.1,31.76Z"/>
      <path id="green" class="cls-2" d="M31.76,185.1a108.43,108.43,0,0,0,153.34,0L31.76,31.76A108.42,108.42,0,0,0,31.76,185.1Z"/>
    </g>
    <path id="white" class="cls-3" d="M178.26,112.12a4.7,4.7,0,0,0,.52-6.6l-.17-.2a4.62,4.62,0,0,0-3.2-1.62,4.55,4.55,0,0,0-1.6.16c-4.27-8.43-10.89-18.25-18.88-28a5.12,5.12,0,0,0-6.55-7.67l-.15-.17-1.56-1.72-.15-.17A165.86,165.86,0,0,0,123.87,45.2l-.29-.21a4.74,4.74,0,0,0-.64-5.12l-.17-.19a4.67,4.67,0,0,0-3.2-1.63,4.62,4.62,0,0,0-3.4,1.11l-.81.69c-3.38-1.7-6.66-2.7-9.24-2.22l-.11,0c-.26.06-.51.12-.76.2l-.36.15c-.16.08-.33.14-.49.23a4.87,4.87,0,0,0-.76.52l0,0,0,0a5.09,5.09,0,0,0-.6.63,2.7,2.7,0,0,0-.2.31,4.07,4.07,0,0,0-.31.49,4.67,4.67,0,0,0-.23.51c0,.12-.11.24-.15.36s-.15.51-.21.78l0,.15c0,.13-.07.26-.09.4l-4,3.44-1-1.21-.19.17a5.7,5.7,0,0,0-1.83,3.65L55.25,82.15a19.85,19.85,0,0,0-6.6,3.7c-4.74,4-7.18,10.15-7.51,17.38l-2.49,2.12a4.82,4.82,0,0,0,3.12,8.48h0l.22,0c2,10.19,7.21,21.49,15.33,32.06a5.12,5.12,0,0,0,3.49,8.45h.41a5.14,5.14,0,0,0,2.68-.76c9,9.52,19.25,16.55,29.11,20.15,0,.15-.06.3-.08.45a4.81,4.81,0,0,0,7.93,4l2.33-2a33.84,33.84,0,0,0,4,.24c5.89,0,10.82-1.65,14.64-4.92a19.83,19.83,0,0,0,4.88-6.3l39.13-33.41a5.8,5.8,0,0,0,3.83-1.28l.19-.17-1-1.15,4.08-3.48a5.8,5.8,0,0,0,3.83-1.28c2.69-2.3,2.32-6.87.78-11.75ZM104.55,44.05l.08-.07.05-.63a3.23,3.23,0,0,1,.9-2.26,3,3,0,0,1,2-.6,13.6,13.6,0,0,1,5.28,1.5l-1.31,1.12c-.73-.36-1.44-.7-2.12-1l-.23-.1L108,44.84l.23.1c.26.1.53.24.79.36a4.58,4.58,0,0,0-.91,5.37,4.67,4.67,0,0,0-2.32-.85h-.1a18.92,18.92,0,0,1-1.15-5.77Zm47.22,78c-7.51-5.4-16-13.33-24.37-22.64l4.81-4.1A165.53,165.53,0,0,0,156.51,118Zm-49.2,42-.72.62c-9-3.23-18-10-27.59-20.41a5.1,5.1,0,0,0,.12-4.33l44.83-38.29a5.26,5.26,0,0,0,2.33.79H122a5.09,5.09,0,0,0,3.12-1.08c8.49,9.48,17.19,17.59,24.88,23.12a4.71,4.71,0,0,0,.18,3.46l-41.84,35.74A4.83,4.83,0,0,0,102.57,164.09ZM52.86,105.88a4.8,4.8,0,0,0,1.37-5.33L96.33,64.6a4.66,4.66,0,0,0,2,.64l.38,0a4.62,4.62,0,0,0,.64-.06c4.37,8.7,11.31,18.89,19.08,28.42a5,5,0,0,0-1.19,5.74L72.4,137.66a5.09,5.09,0,0,0-4.29-.57c-7.08-8.87-13.88-19.73-16-30.58Zm72.67-18.36-4.81,4.11c-8.49-10.41-14.81-20-18.71-27.72l4.8-4.1C111.2,68.34,118,78.24,125.53,87.52ZM159,116.06c-7.54-5.42-16.13-13.41-24.51-22.78a5.14,5.14,0,0,0-6.54-7.65C119.36,75.17,113,65.47,109.1,57.77a4.61,4.61,0,0,0,.68-5.15,4.65,4.65,0,0,0,2.7.87,4.69,4.69,0,0,0,3-1.12l2.17-1.85c7.37,5.31,16.06,13.36,24.49,22.78l-3,2.58a5.14,5.14,0,0,0,3.34,9.05h0a5.15,5.15,0,0,0,3.33-1.23l3-2.58c8,9.82,14.52,19.56,18.56,27.6l-2.31,2a4.69,4.69,0,0,0-1.14,5.63A4.66,4.66,0,0,0,159,116.06ZM144.5,71.33c-8.43-9.44-17-17.42-24.42-22.86l1.43-1.22C128.43,52.23,137,59.89,146,70Zm25.27,35.38a166.56,166.56,0,0,0-18.6-27.56l1.51-1.29c7.88,9.68,14.39,19.35,18.54,27.61ZM102.88,50.58a4.26,4.26,0,0,0-.49.34l-4.23,3.61a16.22,16.22,0,0,1-.73-4.4l4.42-3.78A28.1,28.1,0,0,0,102.88,50.58Zm-7.14,6-.25.22a4.61,4.61,0,0,0-1.19,5.52l-42,35.84a4.5,4.5,0,0,0-.79-.4,26.91,26.91,0,0,1,1.63-7.61l.08-.23L50.4,88.87l-.09.24a29.64,29.64,0,0,0-1.81,8.48,4.73,4.73,0,0,0-1.89,1l-2.28,1.94c.74-5.09,2.8-9.36,6.29-12.34A16.92,16.92,0,0,1,56.48,85l.29-.1,38-32.42A28.48,28.48,0,0,0,95.74,56.6ZM44.9,112.68l4.6-3.93c2.54,10.76,9.14,21.31,16,30l-5.94,5.08c-7.92-10.34-13-21.34-14.81-31.07Zm27.31,33.9c7,7.67,16.07,16,27,20.37l-4.62,3.94c-.06.05-.11.12-.17.18-9.27-3.35-19.26-10-28.17-19.42Zm36.62,24.84a4.89,4.89,0,0,0,1.24-1.68,38,38,0,0,0,9,0h.16a19.81,19.81,0,0,1-12.8,3.76Zm10.44-1.75-.33-3-.25,0a36.08,36.08,0,0,1-8.31,0,5,5,0,0,0-.18-.63l42-35.85a4.71,4.71,0,0,0,2.36.66,4.66,4.66,0,0,0,3-1.12l.35-.29a27.45,27.45,0,0,0,4,1.66l-37.65,32.16-.18.32a17.2,17.2,0,0,1-4.26,5.6C119.66,169.39,119.47,169.52,119.27,169.67Zm41.21-42.36,4-3.42a4.07,4.07,0,0,0,.5-.52,27.26,27.26,0,0,0,4.08,1.7l-4.23,3.62A16.5,16.5,0,0,1,160.48,127.31Zm14.33-5.16a1.81,1.81,0,0,1-.37.24l-.27.11-.16,0a2.5,2.5,0,0,1-.43.09h0c-1.49.2-3.95-.36-7.44-2.14a4.64,4.64,0,0,0-.48-2.24,4.72,4.72,0,0,0,2.7.87,4.65,4.65,0,0,0,2.89-1c.17.59.31,1.17.42,1.72l.05.25,3-.59,0-.25a32,32,0,0,0-.87-3.26l1.28-1.1C176.14,119,175.78,121.33,174.81,122.15Z"/>
  </g>
</svg>
