<svg id="Tambourine" xmlns="http://www.w3.org/2000/svg" viewBox="0 0 216.86 216.86">
  <defs>
    <style>
      .cls-1 {
        fill: #1a66de;
      }

      .cls-2 {
        fill: #4dce73;
      }

      .cls-3 {
        fill: #fff;
      }
    </style>
  </defs>
  <g>
    <path id="blue" class="cls-1" d="M185.1,31.76a108.42,108.42,0,0,0-153.34,0L185.1,185.1A108.43,108.43,0,0,0,185.1,31.76Z"/>
    <path id="green" class="cls-2" d="M31.76,185.1a108.43,108.43,0,0,0,153.34,0L31.76,31.76A108.42,108.42,0,0,0,31.76,185.1Z"/>
  </g>
  <path id="white" class="cls-3" d="M52.28,108.4a56.15,56.15,0,1,0,105.6-26.65l.14,0-1.21-2a55.23,55.23,0,0,0-18.54-18.84,56.17,56.17,0,0,0-86,47.59Zm87.77-32.54A12.68,12.68,0,0,1,136.16,67a12,12,0,0,1,.23-2.15,52.32,52.32,0,0,1,15,14.7A13.58,13.58,0,0,1,140.05,75.86Zm-16.3-17.34a51.74,51.74,0,0,1,9,3.72,16.57,16.57,0,0,0-.62,4.78,17.49,17.49,0,0,0,5.09,12.6A17.31,17.31,0,0,0,154.54,84a51.41,51.41,0,0,1,3.78,9.15,17.38,17.38,0,0,0,0,30.61,51.8,51.8,0,0,1-3.8,9.15,18.19,18.19,0,0,0-2.73-.59,17.53,17.53,0,0,0-14.53,5,17.4,17.4,0,0,0-4.37,17.25,51.45,51.45,0,0,1-9.15,3.79,17.39,17.39,0,0,0-30.58,0A51.15,51.15,0,0,1,84,154.49a17.38,17.38,0,0,0-21.64-21.61,51.45,51.45,0,0,1-3.79-9.15,17.38,17.38,0,0,0,0-30.61A51.41,51.41,0,0,1,62.32,84,17.38,17.38,0,0,0,84,62.31a51.36,51.36,0,0,1,9.14-3.79,17.38,17.38,0,0,0,30.64,0Zm36.46,49.91A52.1,52.1,0,0,1,159,119.49a13.38,13.38,0,0,1,0-22.12A52,52,0,0,1,160.21,108.43Zm-103.56,0a52,52,0,0,1,1.19-11.06,13.38,13.38,0,0,1,0,22.12A52,52,0,0,1,56.65,108.43Zm51.78,44.74A13.5,13.5,0,0,1,119.49,159a52.21,52.21,0,0,1-22.12,0A13.49,13.49,0,0,1,108.43,153.17Zm28-1.15A13.43,13.43,0,0,1,139.25,141h0c.26-.31.53-.6.82-.89a13.54,13.54,0,0,1,12-3.69A52.15,52.15,0,0,1,136.39,152Zm-28-88.33a13.49,13.49,0,0,1-11.06-5.85,52.21,52.21,0,0,1,22.12,0A13.5,13.5,0,0,1,108.43,63.69ZM65.58,136.27a13.45,13.45,0,0,1,11.21,3.8,13.28,13.28,0,0,1,3.92,9.47,13,13,0,0,1-.24,2.48,52.15,52.15,0,0,1-15.63-15.64Zm-.74-55.8A52.23,52.23,0,0,1,80.47,64.84a12.87,12.87,0,0,1,.24,2.48,13.28,13.28,0,0,1-3.92,9.47A13.43,13.43,0,0,1,64.84,80.47ZM171.67,91.81a64.45,64.45,0,0,0-6.78-16.34A17.38,17.38,0,0,0,141.4,52,65,65,0,0,0,125,45.17a17.38,17.38,0,0,0-33.22,0A64.68,64.68,0,0,0,75.46,52,17.38,17.38,0,0,0,52,75.47a64.45,64.45,0,0,0-6.78,16.34,17.38,17.38,0,0,0,0,33.23A64.56,64.56,0,0,0,52,141.4a17.38,17.38,0,0,0,23.52,23.48,64.54,64.54,0,0,0,16.32,6.76,17.38,17.38,0,0,0,33.25,0,64.39,64.39,0,0,0,16.32-6.76A17.38,17.38,0,0,0,164.9,141.4,64.56,64.56,0,0,0,171.7,125a17.38,17.38,0,0,0,0-33.23Zm1.2,27.8a65.84,65.84,0,0,0,.26-20.55l-.06-.41c-.11-.73-.23-1.44-.35-2.11a13.38,13.38,0,0,1,0,23.77C172.79,120.08,172.83,119.84,172.87,119.61ZM162.31,145.5a13.39,13.39,0,0,1-16.81,16.81A66.64,66.64,0,0,0,162.31,145.5Zm-107.76,0a66.44,66.44,0,0,0,16.8,16.81,13.39,13.39,0,0,1-16.8-16.81ZM144.32,58Zm1.17-3.45A13.39,13.39,0,0,1,162.3,71.38c-.23-.34-.47-.68-.73-1l-.41.29h0l.35-.37-.41.28h0l.32-.41-.06-.08-.74-1-.09-.11-.42.28h0l.36-.37-.43.26h0l.36-.34-.06-.08c-.29-.38-.58-.76-.88-1.13l-.1-.13-.88-1.06-.43-.5-.38.32h0l.32-.4-.17-.19c-.25-.3-.5-.59-.77-.89s-.49-.53-.74-.79l-.67-.71c-.32-.35-.65-.69-1-1l-.78-.74-.82-.78c-.32-.3-.64-.61-.94-.88l-.07-.06c-.26-.23-.51-.45-.77-.66l-.88-.75-.77-.65-.38-.3-.74-.59-.36-.27-.69-.52L146.18,55l-.59-.41-.29.4h0l.2-.46Zm-.55.23h0l0,0h0Zm1.38,4.71Zm7.54,6.92Zm2,2.27Zm.92,1.11ZM96.43,44.34l.08-.14.08.43h0Zm23.87-.22-1-.16-.16,0c-.74-.12-1.48-.24-2.23-.33l-.17,0-1.08-.13-.06.49h0l0-.51-.39,0-2.2-.18-.28,0-.17,0-.54,0,0,.49h0l-.08-.5-1.48-.06h-.1c-1.82,0-3.67,0-5.5.07l-.57,0-.34,0,0,.5h0l-.16-.49-.18,0c-.72.05-1.43.11-2.15.19l-.28,0-1,.13c-.81.1-1.61.21-2.41.34l-1.16.21a13.39,13.39,0,0,1,23.77,0ZM74.21,57.46c.36-.24.72-.48,1.09-.71l.68-.43a61,61,0,0,1,18-7.57l.33-.08c.79-.19,1.61-.36,2.51-.53l1.29-.22c.83-.14,1.65-.27,2.5-.38l-.07-.49.19.48.82-.1-.06-.5.17.49.14,0c.68-.07,1.36-.13,2.06-.18l1.16-.09,0-.5.15.5h.14a62,62,0,0,1,6.54,0l1.31.1,1.26.11h0l.81.08.84.1.06-.49.1.51c.83.11,1.66.23,2.49.38l.77.12.09-.49,0,.52.69.13c.94.18,1.8.37,2.61.56a61.16,61.16,0,0,1,17.94,7.56l.12.07.77.5,1.23.81.92.65.12.08,1,.75,1,.76.68.53.17.14.31-.39-.22.46c.28.23.56.47.78.64l1,.83.67.57.05.05c.3.27.59.55.95.89l.47.45c.74.71,1.48,1.46,2.2,2.22l.34.35.36-.34-.26.45c.19.19.37.39.58.62l.64.74.73.87c.27.31.54.62.84,1l.19.23.39-.31-.33.39.67.86.17.24c.27.34.53.69.81,1.08l.3.42.85,1.22.07.11c.25.38.51.77.75,1.16l.43-.27-.36.38a60.68,60.68,0,0,1,8.86,23.7l.06.39a62.54,62.54,0,0,1,.36,14.84,60.92,60.92,0,0,1-1.44,8.47l-.21.88a61.45,61.45,0,0,1-118.9,0l-.22-.9a61.16,61.16,0,0,1-1.09-23.17l.09-.58a60.64,60.64,0,0,1,8.85-23.66l-.4-.3.46.2.11-.17L56.36,75l.5.15.68-1c.22-.33.45-.65.68-1l.32-.45,1-1.37.41-.53.44-.57.2-.25.67-.8.68-.8c.27-.32.54-.64.83-1l.66-.71.54-.56-.37-.34.45.25c.68-.71,1.37-1.4,2.06-2.06l.52-.49c.26-.25.52-.5.82-.76s.42-.38.71-.62l.45-.39-.32-.38.4.32-.33-.38h0l.42.3.57-.48c.25-.21.5-.42.76-.62l1.14-.89,1.4-1,.3-.21-.3-.4.39.34.53-.38-.29-.41.42.32Zm-8,5.71ZM63.69,65.7Zm4.24-8ZM59.19,71Zm.11.1,0,.06L59.16,71Zm2.27-3ZM71.88,54.81l-.16-.14.09,0,.07.1Zm-1.32.32.29.4h0l-.38-.34-.19.14c-.41.29-.82.6-1.23.91l-1.44,1.11.32.39h0l-.43-.3-.09.07-.58.48-.88.75-.44.37-.74.64-.91.85-.88.83-.77.74c-.33.33-.64.67-1,1l-.74.78c-.22.23-.45.47-.71.76s-.65.75-1,1.13l-.4.47.38.32h0l-.49-.19-.2.23-.66.8-.06.08-.62.79-.45.59-1,1.4-.33.47-.38.55A13.4,13.4,0,0,1,67.3,53.92a13.07,13.07,0,0,1,4.07.64C71.12,54.73,70.87,54.9,70.56,55.13Zm3.33,1.94Zm46.42,115.67a13.38,13.38,0,0,1-23.76,0A66.33,66.33,0,0,0,120.31,172.74ZM43.79,98.63l-.06.45A65.64,65.64,0,0,0,43.2,113a64.29,64.29,0,0,0,.91,7.31,13.39,13.39,0,0,1,0-23.77C44,97.21,43.9,97.91,43.79,98.63Z"/>
</svg>
