<svg xmlns="http://www.w3.org/2000/svg" viewBox="0 0 216.86 216.86">
  <defs>
    <style>
      .cls-1 {
        fill: #1a66de;
      }

      .cls-2 {
        fill: #4dce73;
      }

      .cls-3 {
        fill: #fff;
      }
    </style>
  </defs>
  <g id="Tambourine3">
    <g>
      <path id="blue" class="cls-1" d="M185.1,31.76a108.42,108.42,0,0,0-153.34,0L185.1,185.1A108.43,108.43,0,0,0,185.1,31.76Z"/>
      <path id="green" class="cls-2" d="M31.76,185.1a108.43,108.43,0,0,0,153.34,0L31.76,31.76A108.42,108.42,0,0,0,31.76,185.1Z"/>
    </g>
    <path id="white" class="cls-3" d="M168.9,107.62a3,3,0,0,1-1.33-1.38c-1.5-3.46-2.93-6.94-4.33-10.43a2.73,2.73,0,0,1-.08-1.78c2.71-7.46,1.56-14.25-4-19.88s-12.46-6.86-20-4.17a3,3,0,0,1-1.92-.08q-5.17-2.06-10.3-4.27a3,3,0,0,1-1.43-1.28c-3.44-7.12-9-11.14-17-11.15s-13.64,4-17.09,11.2a2.76,2.76,0,0,1-1.32,1.2q-5.19,2.24-10.43,4.32a3.85,3.85,0,0,1-1.94.06c-2.18-.4-4.35-1.22-6.54-1.27A18.39,18.39,0,0,0,53.72,94a2.82,2.82,0,0,1-.06,1.9c-1.38,3.5-2.83,7-4.31,10.43a2.73,2.73,0,0,1-1.23,1.3,18.58,18.58,0,0,0-10.33,11.16c-.41,1.17-.65,2.41-1,3.61v4.48a3.22,3.22,0,0,1,.25.62,18.46,18.46,0,0,0,11.1,14.11A2.68,2.68,0,0,1,49.41,143a58.64,58.64,0,0,0,6.74,14.38,13.07,13.07,0,0,0,10.3,6.14c4.14.3,7.77-1.13,11.19-3.29,1.33-.83,2.71-1.59,4.13-2.42.12.65.18,1.12.28,1.57.41,1.82,1.49,2.48,3.3,1.95a82,82,0,0,1,18.27-3.2A2.19,2.19,0,0,0,105.9,156a2.11,2.11,0,0,0-2.51-2c-2.36.17-4.74.35-7.08.73-3.44.55-6.85,1.27-10.41,1.94q-1.28-9.45-2.55-19c.7-.19,1.23-.34,1.77-.47a99.93,99.93,0,0,1,18.38-2.64c1.63-.09,2.53-1,2.43-2.28s-1.1-2-2.75-1.89a102.58,102.58,0,0,0-19.88,2.93c-3.44.84-4.36,2.16-4,5.68a1.36,1.36,0,0,1-.4,1.13c-3.26,1.67-6.55,3.28-10,5-.63-1.44-1.23-3-2-4.4a1.74,1.74,0,0,1,.58-2.44A18.21,18.21,0,0,0,68.72,112c-.74-.8-2-1.54-2.07-2.42s.82-2.12,1.16-3.22.89-1.07,1.79-1c10.08.81,19.24-6.93,19.47-17.07.08-3.6,1.45-4.91,4.42-5.57a1.57,1.57,0,0,1,.35,0c.2.24.43.53.68.81a18.51,18.51,0,0,0,26.62,1.34c.78-.73,1.54-1.88,2.42-2s2,.76,3.09,1.11c.9.3,1.15.78,1.1,1.75a18.32,18.32,0,0,0,17.88,19.7c1.05,0,2.39-.2,3.09.35s.92,2,1.4,3a1.34,1.34,0,0,1-.45,1.88,17.63,17.63,0,0,0-6.44,14.14,17.94,17.94,0,0,0,6.34,13.66c.34.31.86.88.76,1.14-.7,1.9-1.53,3.75-2.28,5.5-3.4-1.69-6.58-3.24-9.71-4.87a1.55,1.55,0,0,1-.68-1.23c.28-3.62-.6-4.86-4.15-5.73a103.68,103.68,0,0,0-19.75-2.9c-1.79-.09-2.76.54-2.84,1.91s.74,2.11,2.56,2.27c2.55.24,5.13.33,7.66.71,4.12.62,8.23,1.42,12.47,2.17L131,156.8c-.46-.11-.72-.2-1-.24-5.28-.86-10.55-1.77-15.85-2.55-1.64-.24-2.61.6-2.67,1.93s.78,2.12,2.44,2.24A83.48,83.48,0,0,1,130.17,161c3.8,1.05,4.1.86,5.05-3,.43.21.85.4,1.24.63,1.78,1,3.5,2.15,5.32,3.08,7.95,4,15.64,1.89,19.95-5.89a132.94,132.94,0,0,0,5.71-12.7,2.83,2.83,0,0,1,1.48-1.65c7.11-3.34,11.1-9,11.12-16.82S176,111.05,168.9,107.62Zm-127.85,17c0-5.12,2.28-9.07,6.74-12.18a62.92,62.92,0,0,0,0,24.23C43.38,133.59,41.08,129.69,41.05,124.64ZM156.56,77.48c3.21,3.38,4.66,9,3.24,12.63a64.31,64.31,0,0,0-17-16.89C148.41,72.23,152.9,73.62,156.56,77.48Zm-48.1-20.13c5.06,0,9,2.25,12.15,6.68a69.37,69.37,0,0,0-24-.2A13.55,13.55,0,0,1,108.46,57.35ZM60.18,77.7c3.63-4.06,8.23-5.46,14-4.51A64.47,64.47,0,0,0,57,90.32C56.06,85.35,57,81.21,60.18,77.7Zm5,56.83c-1.66-4.38-1.66-15.83,0-19.92C70.87,119,70.87,130.07,65.19,134.53Zm5.48-33.48A45.09,45.09,0,0,1,84.9,86.88C85.77,94.18,77.8,102.08,70.67,101.05ZM98.36,81.32a44.23,44.23,0,0,1,20,0C115,86.29,104.2,87.89,98.36,81.32ZM132,86.89a44.55,44.55,0,0,1,14.22,14.17C139.1,102.06,131.13,94.15,132,86.89Zm19.72,27.72c1.66,4.44,1.64,15.76,0,19.91C146,130,146.07,118.78,151.75,114.61ZM158,153.92c-3.09,5.27-7.94,6.91-13.49,4.37-2.87-1.32-5.55-3-8.3-4.62a1,1,0,0,1-.42-.75c.33-2.81.71-5.61,1.15-8.92,3.39,1.89,6.5,3.56,9.54,5.35,2.46,1.45,3.16,1.34,4.54-1.12,16.14-28.71-.83-65.16-33.24-71.41a48.74,48.74,0,0,0-57.08,38,47.41,47.41,0,0,0,5.36,33.75c1.12,2,2,2.17,4,1,3.18-1.84,6.39-3.61,9.86-5.56.17,1,.28,1.67.37,2.33.28,2,.6,4.06.78,6.1a1.76,1.76,0,0,1-.68,1.37c-2,1.25-4,2.5-6.18,3.54a18.85,18.85,0,0,1-5.07,1.85c-4.4.74-7.7-1.11-10-4.88a56.44,56.44,0,0,1-8.09-24.88c-1.12-13.91,2.18-26.68,10.33-38,10-13.86,23.5-22,40.5-24a57.38,57.38,0,0,1,63,45.36A56.06,56.06,0,0,1,158,153.92Zm11.1-17.24a63.31,63.31,0,0,0,0-24.23c4.27,3,6.58,6.72,6.74,11.59C176.05,129.32,173.74,133.41,169.12,136.68Z"/>
  </g>
</svg>
