<svg xmlns="http://www.w3.org/2000/svg" viewBox="0 0 216.86 216.86">
  <defs>
    <style>
      .cls-1 {
        fill: #1a66de;
      }

      .cls-2 {
        fill: #4dce73;
      }

      .cls-3 {
        fill: #fff;
      }
    </style>
  </defs>
  <g id="Tambourine_2" data-name="Tambourine 2">
    <g>
      <path id="blue" class="cls-1" d="M185.1,31.76a108.42,108.42,0,0,0-153.34,0L185.1,185.1A108.43,108.43,0,0,0,185.1,31.76Z"/>
      <path id="green" class="cls-2" d="M31.76,185.1a108.43,108.43,0,0,0,153.34,0L31.76,31.76A108.42,108.42,0,0,0,31.76,185.1Z"/>
    </g>
    <path id="white" class="cls-3" d="M118.41,91.84c-.85,0-1.7,0-2.54,0L34,46.38l-.35-.19-.94,1.05L31,48.76,56.83,67.27,84,95.53c-19.76,4.63-32.76,13.19-32.76,23.19,0,.17,0,.35,0,.52v35.93h3.89v-2.26c9.35,10.59,34.42,17.63,63.3,17.63s54-7,63.29-17.63v1.25h3.9V118.72C185.6,103.65,156.09,91.84,118.41,91.84Zm-63.3,43.25c3.52,4,9.36,7.56,17,10.44v5.62a5.72,5.72,0,0,0,3.71,5.3v4C62.65,156,55.11,149.91,55.11,143.66ZM164,141.55v-2.88c7.69-2.8,13.61-6.3,17.27-10.21C179.65,133.28,173.63,137.86,164,141.55ZM122,99c-1.18,0-2.37,0-3.56,0-3.79,0-7.51.13-11.14.36l-4-2.85c4.17-.4,8.47-.64,12.86-.7Zm-19.78.73c-2.92.28-5.77.63-8.53,1.06l-2.55-2.66c2.36-.42,4.78-.8,7.28-1.12Zm27.05-.43L123,95.81c29.47.83,54.67,9.62,58.29,20.28C172.84,107.11,153,100.78,129.24,99.29ZM98.45,93,54.3,61.41l55.21,30.66C105.71,92.27,102,92.58,98.45,93Zm-4.74.66c-2,.31-4,.65-5.89,1L71.66,77.88Zm-4,7.79c-15.56,2.87-27.93,8-34.12,14.64,2.45-7.22,14.8-13.58,31.66-17.19ZM72.13,141.27c-9.22-3.63-15-8.12-16.58-12.81,3.56,3.79,9.23,7.2,16.58,10Zm1-6.74c-9-3.41-15.08-7.75-17.15-12.25,3.53-7.7,18.18-14.2,37.07-17.36l25.58,26.62.28.29,2.91-1.8L97,104.3c3.27-.45,6.64-.81,10.08-1l36.53,26.13,2.54-2.23L112.38,103q3-.12,6-.12c3.79,0,7.55.14,11.21.39l20.86,11.58.35.2,2.22-2.5L137.78,104c21.76,2.7,39.21,9.74,43.11,18.24-2.12,4.6-8.39,9-17.72,12.45a5.63,5.63,0,0,0-4.87-2.79,5.69,5.69,0,0,0-5.68,5.68v.28a148.49,148.49,0,0,1-34.21,3.81,147.71,147.71,0,0,1-34.91-4v-.11a5.66,5.66,0,0,0-10.42-3.09ZM152.62,142v3a148.18,148.18,0,0,1-34.21,3.82,147.43,147.43,0,0,1-34.91-4v-3a153.6,153.6,0,0,0,34.91,3.78A154.7,154.7,0,0,0,152.62,142Zm-72.89,14.5a5.71,5.71,0,0,0,3.77-5.33v-2.22a153.59,153.59,0,0,0,34.91,3.79,154.68,154.68,0,0,0,34.21-3.63v2.06a5.64,5.64,0,0,0,3.67,5.29v5.45a143.58,143.58,0,0,1-37.88,4.75c-13.79,0-27.51-1.77-38.68-5Zm80.45,0a5.7,5.7,0,0,0,3.81-5.34v-5.37c8-2.91,14.09-6.59,17.71-10.69v8.57c0,6.4-7.83,12.6-21.52,17.05Z"/>
  </g>
</svg>
