<svg xmlns="http://www.w3.org/2000/svg" viewBox="0 0 216.86 216.86">
  <defs>
    <style>
      .cls-1 {
        fill: #1a66de;
      }

      .cls-2 {
        fill: #4dce73;
      }

      .cls-3 {
        fill: #fff;
      }
    </style>
  </defs>
  <g id="Twin-horned">
    <g>
      <path id="blue" class="cls-1" d="M185.1,31.76a108.42,108.42,0,0,0-153.34,0L185.1,185.1A108.43,108.43,0,0,0,185.1,31.76Z"/>
      <path id="green" class="cls-2" d="M31.76,185.1a108.43,108.43,0,0,0,153.34,0L31.76,31.76A108.42,108.42,0,0,0,31.76,185.1Z"/>
    </g>
    <path id="white" class="cls-3" d="M188.53,83.06a1.84,1.84,0,0,1-.48,1.33l-73.63,81.38a1.85,1.85,0,0,1-2.75-2.48l73.64-81.38a1.82,1.82,0,0,1,1.28-.6,1.78,1.78,0,0,1,1.33.47A1.87,1.87,0,0,1,188.53,83.06ZM108.71,125.5a20.16,20.16,0,0,1-3.69-8.38c-1.51-7.23.45-13.47,4.54-14.56l41.83-20.67a5.54,5.54,0,0,1,3.69-.45l.24,0a5.48,5.48,0,0,1,1.2.41l.18-.11,24.9-13.71a7.15,7.15,0,0,0,3.18-6.91,4.87,4.87,0,0,0-.86-2L139,77.54a6.61,6.61,0,0,1-2.89,7.53L76.83,120.19a1.85,1.85,0,0,1-2.1-.14h-.06c-5.11,0-9.11-7.12-9.11-16.19s3.8-16,8.85-16.19L130.86,73a6.56,6.56,0,0,1,4.32.37l.28.13a6.45,6.45,0,0,1,1.46.9l44.19-18.07a11.91,11.91,0,0,0-5.79-2,40.37,40.37,0,0,0-13,1L114.88,67.4a6.3,6.3,0,0,1-3.95,5.5l-75,29.58a2.88,2.88,0,0,1-1.29.49,2.38,2.38,0,0,1-.44,0c-5.58-.12-5.86-15.94-5.86-19.11s.28-19,5.88-19.11l74.1-4a6.32,6.32,0,0,1,5.66,3l47.41-12.09a44.21,44.21,0,0,1,14.25-1.09,15.12,15.12,0,0,1,10.92,5.85,9,9,0,0,1,1.89,4.22,10.93,10.93,0,0,1-4.95,10.55L159.21,84.63l.1.24a5.64,5.64,0,0,1-1.4,6.21l-40.78,37.21a1.86,1.86,0,0,1-1.25.48,1.91,1.91,0,0,1-.71-.14C113,129.06,110.66,127.94,108.71,125.5Zm5.65-16.28a13.37,13.37,0,0,0-1-1.46c-1.38-1.68-2.62-1.65-2.79-1.63-1.61.39-3.1,4.45-1.89,10.23a16.38,16.38,0,0,0,3,6.83c1,1.29,2.12,2,2.9,1.8a1.48,1.48,0,0,0,.78-.47,13,13,0,0,0,1.49-7.42c0-.17,0-.34,0-.51-.08-.61-.18-1.23-.3-1.84A18.54,18.54,0,0,0,114.36,109.22ZM153,85.2l-38.19,18.87a9.42,9.42,0,0,1,1.34,1.34,19.92,19.92,0,0,1,4.23,11,20.44,20.44,0,0,1,.06,3.82l34.94-31.88a1.9,1.9,0,0,0-.89-3.25l-.24,0A1.86,1.86,0,0,0,153,85.2ZM38.75,97.39l70.83-27.93a2.56,2.56,0,0,0-1.07-4.94L38.05,68.27a20.58,20.58,0,0,1,1,3.36c1.51,3.76,2,10.75,1.14,17.34-.16,1.24-.34,2.42-.52,3.5A35,35,0,0,1,38.75,97.39Zm-3.28-24.8c-.63-1.47-1.11-2.48-1.47-3.17-.89,2.1-2,7.1-2,14.47,0,7.85,1.25,13,2.15,14.84a25.87,25.87,0,0,0,1.88-7,63.52,63.52,0,0,0,.46-7.84A54.18,54.18,0,0,0,35.47,72.59Zm46.93,40,51.85-30.71a2.84,2.84,0,0,0,.8-4.13.55.55,0,0,1-.08-.1,2.79,2.79,0,0,0-1-.78l-.28-.13a2.89,2.89,0,0,0-1.88-.16L79.61,90.14c.19.21.38.44.56.68a11.42,11.42,0,0,1,1.13,1.77,24.28,24.28,0,0,1,2.35,14.15A25.13,25.13,0,0,1,82.4,112.6ZM78.05,94.36a9.23,9.23,0,0,0-.63-1,4.13,4.13,0,0,0-2.78-2c-2.25,0-5.39,4.8-5.39,12.5s3.16,12.49,5.42,12.49a2.41,2.41,0,0,0,1.39-.51,16.9,16.9,0,0,0,3.85-9l.07-.56c.07-.8.11-1.63.11-2.46a21.93,21.93,0,0,0-1.63-8.66A9.3,9.3,0,0,0,78.05,94.36Z"/>
  </g>
</svg>
