<svg xmlns="http://www.w3.org/2000/svg" viewBox="0 0 216.86 216.86">
  <defs>
    <style>
      .cls-1 {
        fill: #1a66de;
      }

      .cls-2 {
        fill: #4dce73;
      }

      .cls-3 {
        fill: #fff;
      }
    </style>
  </defs>
  <g id="Ukulele">
    <g>
      <path id="blue" class="cls-1" d="M185.1,31.76a108.42,108.42,0,0,0-153.34,0L185.1,185.1A108.43,108.43,0,0,0,185.1,31.76Z"/>
      <path id="green" class="cls-2" d="M31.76,185.1a108.43,108.43,0,0,0,153.34,0L31.76,31.76A108.42,108.42,0,0,0,31.76,185.1Z"/>
    </g>
    <path id="white" class="cls-3" d="M176.39,53.31,163.54,40.46a.51.51,0,0,0-.56-.1l-10.89,4.73-.34-.34a.49.49,0,0,0-.75,0l-.85,1.13-1,.45a.49.49,0,0,0-.29.36.5.5,0,0,0,.14.45l.14.14L135.81,65l-25.2,21.8C98.55,83.67,84.19,88.22,74,98.44c-.87.88-1.74,1.82-2.58,2.82a38,38,0,1,0,44.21,44.21c1-.84,2-1.71,2.82-2.58,10.22-10.23,14.77-24.58,11.63-36.65L151.84,81l17.68-13.29.14.14a.51.51,0,0,0,.45.14.49.49,0,0,0,.36-.29l.45-1,1.13-.85a.49.49,0,0,0,0-.75l-.34-.34,4.73-10.89A.52.52,0,0,0,176.39,53.31Zm-60.6,87c-1,1-2,1.87-3.08,2.79l-.4.32a.51.51,0,0,0-.17.3l-.09.51a34.22,34.22,0,0,1-33.78,28.65h0a34.25,34.25,0,0,1-5.59-68l.5-.08a.51.51,0,0,0,.3-.17l.32-.4c.92-1.11,1.83-2.12,2.79-3.08,7.34-7.34,16.85-11.55,26.11-11.55a29,29,0,0,1,4.4.34l-7.42,6.42a.46.46,0,0,0-.17.36.47.47,0,0,0,.14.37l20.21,20.21a.5.5,0,0,0,.37.14.46.46,0,0,0,.36-.17l6.42-7.42C128.62,120.08,124.38,131.68,115.79,140.27ZM120,112.16,104.69,96.82l32.39-28,11,11Zm30.71-34.93L139.62,66.11,151.74,50l15.14,15.14ZM169,62l-14-14.05,7.56-3.28,9.77,9.77ZM81.8,153a.5.5,0,0,1,.14.35.52.52,0,0,1-.14.36l-1.91,1.91a.5.5,0,0,1-.36.14.47.47,0,0,1-.35-.14l-17.9-17.9a.5.5,0,0,1-.14-.35.54.54,0,0,1,.14-.36l1.91-1.9a.5.5,0,0,1,.71,0Zm-.41-37.75a14.32,14.32,0,1,0,20.26,0A14.25,14.25,0,0,0,81.39,115.2ZM99,132.84a10.62,10.62,0,1,1,3.11-7.51A10.54,10.54,0,0,1,99,132.84Z"/>
  </g>
</svg>
